Source-HROTx_VROTn_SLENn_SANGn.ufo
<glyph name="exclam" format="2">
  <advance width="185"/>
  <unicode hex="0021"/>
  <outline>
    <contour>
      <point x="-64" y="552" type="curve" smooth="yes"/>
      <point x="113" y="301" type="line" smooth="yes"/>
      <point x="152" y="246"/>
      <point x="78" y="194"/>
      <point x="39" y="249" type="curve" smooth="yes"/>
      <point x="-138" y="500" type="line" smooth="yes"/>
      <point x="-177" y="555"/>
      <point x="-103" y="607"/>
    </contour>
    <contour>
      <point x="199" y="57" type="curve" smooth="yes"/>
      <point x="114" y="67"/>
      <point x="105" y="164"/>
      <point x="174" y="177" type="curve" smooth="yes"/>
      <point x="240" y="190"/>
      <point x="257" y="101"/>
      <point x="190" y="89" type="curve" smooth="yes"/>
      <point x="189" y="88"/>
      <point x="207" y="147"/>
      <point x="209" y="147" type="curve" smooth="yes"/>
      <point x="276" y="139"/>
      <point x="266" y="50"/>
    </contour>
  </outline>
</glyph>
<glyph name="numbersign" format="2">
  <advance width="494"/>
  <unicode hex="0023"/>
  <outline>
    <contour>
      <point x="27" y="553" type="curve" smooth="yes"/>
      <point x="66" y="494"/>
      <point x="88" y="455"/>
      <point x="158" y="343" type="curve" smooth="yes"/>
      <point x="226" y="235"/>
      <point x="256" y="185"/>
      <point x="293" y="129" type="curve" smooth="yes"/>
      <point x="329" y="72"/>
      <point x="254" y="23"/>
      <point x="217" y="79" type="curve" smooth="yes"/>
      <point x="180" y="137"/>
      <point x="149" y="188"/>
      <point x="82" y="295" type="curve" smooth="yes"/>
      <point x="12" y="407"/>
      <point x="-10" y="444"/>
      <point x="-49" y="503" type="curve" smooth="yes"/>
      <point x="-86" y="559"/>
      <point x="-11" y="609"/>
    </contour>
    <contour>
      <point x="194" y="553" type="curve" smooth="yes"/>
      <point x="236" y="492"/>
      <point x="256" y="454"/>
      <point x="326" y="343" type="curve" smooth="yes"/>
      <point x="392" y="238"/>
      <point x="424" y="187"/>
      <point x="461" y="128" type="curve" smooth="yes"/>
      <point x="497" y="71"/>
      <point x="421" y="23"/>
      <point x="385" y="80" type="curve" smooth="yes"/>
      <point x="349" y="137"/>
      <point x="318" y="187"/>
      <point x="250" y="295" type="curve" smooth="yes"/>
      <point x="178" y="408"/>
      <point x="160" y="443"/>
      <point x="120" y="503" type="curve" smooth="yes"/>
      <point x="82" y="559"/>
      <point x="157" y="609"/>
    </contour>
    <contour>
      <point x="333" y="357" type="curve" smooth="yes"/>
      <point x="304" y="357"/>
      <point x="267" y="357"/>
      <point x="251" y="357" type="curve" smooth="yes"/>
      <point x="154" y="357"/>
      <point x="120" y="357"/>
      <point x="55" y="357" type="curve" smooth="yes"/>
      <point x="23" y="357"/>
      <point x="-13" y="357"/>
      <point x="-42" y="357" type="curve" smooth="yes"/>
      <point x="-109" y="357"/>
      <point x="-109" y="447"/>
      <point x="-42" y="447" type="curve" smooth="yes"/>
      <point x="1" y="447"/>
      <point x="34" y="447"/>
      <point x="55" y="447" type="curve" smooth="yes"/>
      <point x="152" y="447"/>
      <point x="186" y="447"/>
      <point x="251" y="447" type="curve" smooth="yes"/>
      <point x="275" y="447"/>
      <point x="313" y="447"/>
      <point x="333" y="447" type="curve" smooth="yes"/>
      <point x="401" y="447"/>
      <point x="401" y="357"/>
    </contour>
    <contour>
      <point x="455" y="185" type="curve" smooth="yes"/>
      <point x="414" y="185"/>
      <point x="378" y="185"/>
      <point x="358" y="185" type="curve" smooth="yes"/>
      <point x="261" y="185"/>
      <point x="226" y="185"/>
      <point x="161" y="185" type="curve" smooth="yes"/>
      <point x="137" y="185"/>
      <point x="106" y="185"/>
      <point x="80" y="185" type="curve" smooth="yes"/>
      <point x="12" y="185"/>
      <point x="13" y="275"/>
      <point x="80" y="275" type="curve" smooth="yes"/>
      <point x="119" y="275"/>
      <point x="145" y="275"/>
      <point x="161" y="275" type="curve" smooth="yes"/>
      <point x="258" y="275"/>
      <point x="293" y="275"/>
      <point x="358" y="275" type="curve" smooth="yes"/>
      <point x="388" y="275"/>
      <point x="427" y="275"/>
      <point x="455" y="275" type="curve" smooth="yes"/>
      <point x="523" y="275"/>
      <point x="523" y="185"/>
    </contour>
  </outline>
</glyph>
<glyph name="dollar" format="2">
  <advance width="354"/>
  <unicode hex="0024"/>
  <outline>
    <contour>
      <point x="3" y="614" type="curve" smooth="yes"/>
      <point x="40" y="556"/>
      <point x="40" y="550"/>
      <point x="75" y="540" type="curve" smooth="yes"/>
      <point x="99" y="534"/>
      <point x="312" y="401"/>
      <point x="54" y="453" type="curve" smooth="yes"/>
      <point x="43" y="455"/>
      <point x="32" y="456"/>
      <point x="22" y="456" type="curve" smooth="yes"/>
      <point x="5" y="456"/>
      <point x="-14" y="459"/>
      <point x="-1" y="440" type="curve" smooth="yes"/>
      <point x="27" y="398"/>
      <point x="97" y="377"/>
      <point x="154" y="360" type="curve" smooth="yes"/>
      <point x="242" y="333"/>
      <point x="319" y="307"/>
      <point x="365" y="242" type="curve" smooth="yes"/>
      <point x="435" y="143"/>
      <point x="353" y="81"/>
      <point x="263" y="81" type="curve" smooth="yes"/>
      <point x="247" y="81"/>
      <point x="232" y="83"/>
      <point x="218" y="86" type="curve" smooth="yes"/>
      <point x="192" y="91"/>
      <point x="-20" y="234"/>
      <point x="235" y="174" type="curve" smooth="yes"/>
      <point x="291" y="161"/>
      <point x="306" y="145"/>
      <point x="359" y="59" type="curve" smooth="yes"/>
      <point x="395" y="2"/>
      <point x="319" y="-46"/>
      <point x="283" y="11" type="curve" smooth="yes"/>
      <point x="253" y="59"/>
      <point x="246" y="79"/>
      <point x="215" y="86" type="curve" smooth="yes"/>
      <point x="191" y="92"/>
      <point x="-21" y="226"/>
      <point x="232" y="174" type="curve" smooth="yes"/>
      <point x="242" y="173"/>
      <point x="253" y="171"/>
      <point x="263" y="171" type="curve" smooth="yes"/>
      <point x="282" y="171"/>
      <point x="306" y="169"/>
      <point x="291" y="190" type="curve" smooth="yes"/>
      <point x="260" y="234"/>
      <point x="187" y="255"/>
      <point x="128" y="274" type="curve" smooth="yes"/>
      <point x="42" y="300"/>
      <point x="-32" y="326"/>
      <point x="-75" y="388" type="curve" smooth="yes"/>
      <point x="-144" y="485"/>
      <point x="-66" y="546"/>
      <point x="22" y="546" type="curve" smooth="yes"/>
      <point x="40" y="546"/>
      <point x="57" y="545"/>
      <point x="72" y="541" type="curve" smooth="yes"/>
      <point x="96" y="536"/>
      <point x="310" y="385"/>
      <point x="51" y="454" type="curve" smooth="yes"/>
      <point x="-2" y="468"/>
      <point x="-16" y="475"/>
      <point x="-73" y="566" type="curve" smooth="yes"/>
      <point x="-109" y="623"/>
      <point x="-33" y="671"/>
    </contour>
  </outline>
</glyph>
<glyph name="percent" format="2">
  <advance width="723"/>
  <unicode hex="0025"/>
  <outline>
    <contour>
      <point x="607" y="65" type="curve" smooth="yes"/>
      <point x="553" y="83"/>
      <point x="497" y="126"/>
      <point x="457" y="181" type="curve" smooth="yes"/>
      <point x="388" y="279"/>
      <point x="424" y="359"/>
      <point x="515" y="359" type="curve" smooth="yes"/>
      <point x="586" y="359"/>
      <point x="671" y="309"/>
      <point x="725" y="233" type="curve" smooth="yes"/>
      <point x="781" y="155"/>
      <point x="766" y="95"/>
      <point x="723" y="69" type="curve" smooth="yes"/>
      <point x="665" y="35"/>
      <point x="619" y="112"/>
      <point x="677" y="147" type="curve" smooth="yes"/>
      <point x="679" y="148"/>
      <point x="654" y="177"/>
      <point x="651" y="181" type="curve" smooth="yes"/>
      <point x="618" y="229"/>
      <point x="560" y="269"/>
      <point x="515" y="269" type="curve" smooth="yes"/>
      <point x="507" y="269"/>
      <point x="525" y="242"/>
      <point x="531" y="233" type="curve" smooth="yes"/>
      <point x="557" y="196"/>
      <point x="599" y="163"/>
      <point x="635" y="151" type="curve" smooth="yes"/>
      <point x="699" y="129"/>
      <point x="671" y="44"/>
    </contour>
    <contour>
      <point x="361" y="532" type="curve" smooth="yes"/>
      <point x="365" y="490"/>
      <point x="362" y="438"/>
      <point x="363" y="388" type="curve" smooth="yes"/>
      <point x="363" y="320"/>
      <point x="363" y="250"/>
      <point x="364" y="205" type="curve" smooth="yes"/>
      <point x="364" y="170"/>
      <point x="362" y="137"/>
      <point x="363" y="105" type="curve" smooth="yes"/>
      <point x="365" y="38"/>
      <point x="275" y="35"/>
      <point x="273" y="103" type="curve" smooth="yes"/>
      <point x="272" y="137"/>
      <point x="274" y="172"/>
      <point x="274" y="203" type="curve"/>
      <point x="273" y="248"/>
      <point x="273" y="320"/>
      <point x="273" y="386" type="curve"/>
      <point x="272" y="444"/>
      <point x="275" y="486"/>
      <point x="271" y="524" type="curve" smooth="yes"/>
      <point x="265" y="591"/>
      <point x="354" y="600"/>
    </contour>
    <contour>
      <point x="34" y="567" type="curve" smooth="yes"/>
      <point x="89" y="548"/>
      <point x="146" y="505"/>
      <point x="185" y="450" type="curve" smooth="yes"/>
      <point x="254" y="353"/>
      <point x="217" y="273"/>
      <point x="126" y="273" type="curve" smooth="yes"/>
      <point x="55" y="273"/>
      <point x="-28" y="322"/>
      <point x="-82" y="398" type="curve" smooth="yes"/>
      <point x="-137" y="477"/>
      <point x="-124" y="535"/>
      <point x="-84" y="561" type="curve" smooth="yes"/>
      <point x="-28" y="599"/>
      <point x="22" y="524"/>
      <point x="-34" y="487" type="curve" smooth="yes"/>
      <point x="-36" y="485"/>
      <point x="-11" y="453"/>
      <point x="-8" y="450" type="curve" smooth="yes"/>
      <point x="25" y="402"/>
      <point x="82" y="363"/>
      <point x="126" y="363" type="curve" smooth="yes"/>
      <point x="135" y="363"/>
      <point x="118" y="389"/>
      <point x="111" y="398" type="curve" smooth="yes"/>
      <point x="84" y="437"/>
      <point x="43" y="468"/>
      <point x="4" y="481" type="curve" smooth="yes"/>
      <point x="-59" y="503"/>
      <point x="-30" y="588"/>
    </contour>
  </outline>
</glyph>
<glyph name="ampersand" format="2">
  <advance width="448"/>
  <unicode hex="0026"/>
  <outline>
    <contour>
      <point x="112" y="471" type="curve" smooth="yes"/>
      <point x="78" y="480"/>
      <point x="46" y="487"/>
      <point x="20" y="487" type="curve" smooth="yes"/>
      <point x="-10" y="487"/>
      <point x="-19" y="488"/>
      <point x="3" y="457" type="curve" smooth="yes"/>
      <point x="43" y="401"/>
      <point x="125" y="367"/>
      <point x="244" y="367" type="curve" smooth="yes"/>
      <point x="273" y="367"/>
      <point x="294" y="367"/>
      <point x="313" y="367" type="curve" smooth="yes"/>
      <point x="321" y="367"/>
      <point x="504" y="277"/>
      <point x="312" y="277" type="curve" smooth="yes"/>
      <point x="286" y="277"/>
      <point x="263" y="277"/>
      <point x="244" y="277" type="curve" smooth="yes"/>
      <point x="161" y="277"/>
      <point x="119" y="276"/>
      <point x="152" y="229" type="curve" smooth="yes"/>
      <point x="187" y="179"/>
      <point x="255" y="145"/>
      <point x="316" y="145" type="curve" smooth="yes"/>
      <point x="353" y="145"/>
      <point x="351" y="155"/>
      <point x="326" y="190" type="curve" smooth="yes"/>
      <point x="289" y="242"/>
      <point x="274" y="263"/>
      <point x="240" y="311" type="curve" smooth="yes"/>
      <point x="221" y="339"/>
      <point x="207" y="359"/>
      <point x="190" y="383" type="curve" smooth="yes"/>
      <point x="151" y="438"/>
      <point x="225" y="490"/>
      <point x="264" y="435" type="curve" smooth="yes"/>
      <point x="281" y="411"/>
      <point x="295" y="391"/>
      <point x="314" y="363" type="curve" smooth="yes"/>
      <point x="348" y="315"/>
      <point x="363" y="294"/>
      <point x="400" y="242" type="curve" smooth="yes"/>
      <point x="474" y="137"/>
      <point x="428" y="55"/>
      <point x="316" y="55" type="curve" smooth="yes"/>
      <point x="225" y="55"/>
      <point x="131" y="103"/>
      <point x="78" y="177" type="curve" smooth="yes"/>
      <point x="2" y="285"/>
      <point x="52" y="367"/>
      <point x="244" y="367" type="curve" smooth="yes"/>
      <point x="272" y="367"/>
      <point x="295" y="367"/>
      <point x="312" y="367" type="curve" smooth="yes"/>
      <point x="320" y="367"/>
      <point x="504" y="277"/>
      <point x="313" y="277" type="curve" smooth="yes"/>
      <point x="285" y="277"/>
      <point x="264" y="277"/>
      <point x="244" y="277" type="curve" smooth="yes"/>
      <point x="85" y="277"/>
      <point x="-17" y="330"/>
      <point x="-71" y="405" type="curve" smooth="yes"/>
      <point x="-146" y="513"/>
      <point x="-80" y="577"/>
      <point x="20" y="577" type="curve" smooth="yes"/>
      <point x="54" y="577"/>
      <point x="90" y="570"/>
      <point x="134" y="559" type="curve" smooth="yes"/>
      <point x="200" y="542"/>
      <point x="177" y="455"/>
    </contour>
  </outline>
</glyph>
<glyph name="parenleft" format="2">
  <advance width="320"/>
  <unicode hex="0028"/>
  <outline>
    <contour>
      <point x="465" y="-64" type="curve" smooth="yes"/>
      <point x="419" y="-54"/>
      <point x="365" y="-33"/>
      <point x="312" y="-2" type="curve" smooth="yes"/>
      <point x="213" y="54"/>
      <point x="108" y="143"/>
      <point x="21" y="265" type="curve" smooth="yes"/>
      <point x="-77" y="403"/>
      <point x="-91" y="499"/>
      <point x="-68" y="561" type="curve" smooth="yes"/>
      <point x="-56" y="601"/>
      <point x="-24" y="631"/>
      <point x="18" y="645" type="curve" smooth="yes"/>
      <point x="81" y="668"/>
      <point x="112" y="583"/>
      <point x="48" y="561" type="curve" smooth="yes"/>
      <point x="34" y="555"/>
      <point x="21" y="547"/>
      <point x="16" y="531" type="curve" smooth="yes"/>
      <point x="1" y="488"/>
      <point x="28" y="411"/>
      <point x="95" y="317" type="curve" smooth="yes"/>
      <point x="172" y="207"/>
      <point x="267" y="126"/>
      <point x="356" y="76" type="curve" smooth="yes"/>
      <point x="401" y="51"/>
      <point x="446" y="32"/>
      <point x="483" y="24" type="curve" smooth="yes"/>
      <point x="549" y="10"/>
      <point x="531" y="-78"/>
    </contour>
  </outline>
</glyph>
<glyph name="period" format="2">
  <advance width="184"/>
  <unicode hex="002E"/>
  <outline>
    <contour>
      <point x="169" y="75" type="curve" smooth="yes"/>
      <point x="163" y="84"/>
      <point x="151" y="103"/>
      <point x="144" y="111" type="curve" smooth="yes"/>
      <point x="102" y="164"/>
      <point x="172" y="220"/>
      <point x="214" y="167" type="curve" smooth="yes"/>
      <point x="223" y="155"/>
      <point x="235" y="138"/>
      <point x="243" y="127" type="curve" smooth="yes"/>
      <point x="282" y="72"/>
      <point x="208" y="20"/>
    </contour>
  </outline>
</glyph>
<glyph name="zero" format="2">
  <advance width="418"/>
  <unicode hex="0030"/>
  <outline>
    <contour>
      <point x="339" y="148" type="curve" smooth="yes"/>
      <point x="341" y="148"/>
      <point x="340" y="152"/>
      <point x="340" y="153" type="curve" smooth="yes"/>
      <point x="344" y="183"/>
      <point x="316" y="240"/>
      <point x="280" y="291" type="curve" smooth="yes"/>
      <point x="204" y="399"/>
      <point x="93" y="487"/>
      <point x="16" y="487" type="curve" smooth="yes"/>
      <point x="-30" y="487"/>
      <point x="10" y="407"/>
      <point x="56" y="343" type="curve" smooth="yes"/>
      <point x="101" y="278"/>
      <point x="159" y="222"/>
      <point x="212" y="186" type="curve" smooth="yes"/>
      <point x="237" y="171"/>
      <point x="263" y="156"/>
      <point x="289" y="150" type="curve" smooth="yes"/>
      <point x="355" y="133"/>
      <point x="332" y="46"/>
      <point x="267" y="62" type="curve" smooth="yes"/>
      <point x="231" y="72"/>
      <point x="199" y="89"/>
      <point x="162" y="112" type="curve" smooth="yes"/>
      <point x="101" y="152"/>
      <point x="35" y="216"/>
      <point x="-18" y="291" type="curve" smooth="yes"/>
      <point x="-139" y="462"/>
      <point x="-108" y="577"/>
      <point x="16" y="577" type="curve" smooth="yes"/>
      <point x="119" y="577"/>
      <point x="252" y="487"/>
      <point x="354" y="343" type="curve" smooth="yes"/>
      <point x="414" y="256"/>
      <point x="436" y="190"/>
      <point x="430" y="145" type="curve" smooth="yes"/>
      <point x="426" y="108"/>
      <point x="409" y="79"/>
      <point x="373" y="64" type="curve" smooth="yes"/>
      <point x="310" y="39"/>
      <point x="277" y="123"/>
    </contour>
  </outline>
</glyph>
<glyph name="three" format="2">
  <advance width="346"/>
  <unicode hex="0033"/>
  <outline>
    <contour>
      <point x="175" y="164" type="curve" smooth="yes"/>
      <point x="211" y="153"/>
      <point x="246" y="146"/>
      <point x="276" y="146" type="curve" smooth="yes"/>
      <point x="307" y="146"/>
      <point x="306" y="159"/>
      <point x="285" y="188" type="curve" smooth="yes"/>
      <point x="243" y="247"/>
      <point x="175" y="272"/>
      <point x="136" y="276" type="curve" smooth="yes"/>
      <point x="111" y="279"/>
      <point x="105" y="279"/>
      <point x="88" y="280" type="curve" smooth="yes"/>
      <point x="43" y="282"/>
      <point x="4" y="284"/>
      <point x="24" y="387" type="curve" smooth="yes"/>
      <point x="28" y="404"/>
      <point x="30" y="415"/>
      <point x="33" y="431" type="curve" smooth="yes"/>
      <point x="34" y="445"/>
      <point x="38" y="465"/>
      <point x="43" y="492" type="curve" smooth="yes"/>
      <point x="43" y="495"/>
      <point x="36" y="480"/>
      <point x="31" y="480" type="curve" smooth="yes"/>
      <point x="-57" y="480"/>
      <point x="-93" y="480"/>
      <point x="-123" y="480" type="curve" smooth="yes"/>
      <point x="-190" y="480"/>
      <point x="-190" y="570"/>
      <point x="-123" y="570" type="curve" smooth="yes"/>
      <point x="-78" y="570"/>
      <point x="-28" y="570"/>
      <point x="31" y="570" type="curve" smooth="yes"/>
      <point x="131" y="570"/>
      <point x="144" y="547"/>
      <point x="131" y="476" type="curve" smooth="yes"/>
      <point x="126" y="451"/>
      <point x="124" y="431"/>
      <point x="121" y="415" type="curve" smooth="yes"/>
      <point x="118" y="397"/>
      <point x="116" y="386"/>
      <point x="112" y="369" type="curve" smooth="yes"/>
      <point x="111" y="365"/>
      <point x="90" y="370"/>
      <point x="94" y="370" type="curve" smooth="yes"/>
      <point x="111" y="369"/>
      <point x="119" y="369"/>
      <point x="146" y="366" type="curve" smooth="yes"/>
      <point x="201" y="360"/>
      <point x="297" y="327"/>
      <point x="359" y="240" type="curve" smooth="yes"/>
      <point x="426" y="144"/>
      <point x="379" y="58"/>
      <point x="276" y="56" type="curve" smooth="yes"/>
      <point x="238" y="56"/>
      <point x="193" y="64"/>
      <point x="147" y="78" type="curve" smooth="yes"/>
      <point x="83" y="99"/>
      <point x="110" y="184"/>
    </contour>
  </outline>
</glyph>
<glyph name="less" format="2">
  <advance width="317"/>
  <unicode hex="003C"/>
  <outline>
    <contour>
      <point x="177" y="381" type="curve" smooth="yes"/>
      <point x="152" y="355"/>
      <point x="128" y="330"/>
      <point x="97" y="298" type="curve" smooth="yes"/>
      <point x="94" y="295"/>
      <point x="123" y="304"/>
      <point x="129" y="302" type="curve" smooth="yes"/>
      <point x="204" y="271"/>
      <point x="268" y="242"/>
      <point x="330" y="216" type="curve" smooth="yes"/>
      <point x="392" y="190"/>
      <point x="356" y="107"/>
      <point x="294" y="134" type="curve" smooth="yes"/>
      <point x="234" y="160"/>
      <point x="170" y="187"/>
      <point x="95" y="218" type="curve" smooth="yes"/>
      <point x="-28" y="268"/>
      <point x="-21" y="307"/>
      <point x="33" y="360" type="curve" smooth="yes"/>
      <point x="64" y="392"/>
      <point x="88" y="417"/>
      <point x="113" y="443" type="curve" smooth="yes"/>
      <point x="159" y="492"/>
      <point x="224" y="429"/>
    </contour>
  </outline>
</glyph>
<glyph name="A" format="2">
  <advance width="461"/>
  <unicode hex="0041"/>
  <outline>
    <contour>
      <point x="127" y="89" type="curve" smooth="yes"/>
      <point x="116" y="118"/>
      <point x="108" y="139"/>
      <point x="99" y="169" type="curve"/>
      <point x="77" y="226"/>
      <point x="100" y="275"/>
      <point x="173" y="275" type="curve" smooth="yes"/>
      <point x="213" y="275"/>
      <point x="233" y="275"/>
      <point x="262" y="275" type="curve" smooth="yes"/>
      <point x="274" y="275"/>
      <point x="474" y="185"/>
      <point x="262" y="185" type="curve" smooth="yes"/>
      <point x="230" y="185"/>
      <point x="221" y="185"/>
      <point x="209" y="185" type="curve" smooth="yes"/>
      <point x="132" y="185"/>
      <point x="72" y="238"/>
      <point x="46" y="312" type="curve" smooth="yes"/>
      <point x="27" y="363"/>
      <point x="10" y="418"/>
      <point x="-9" y="468" type="curve" smooth="yes"/>
      <point x="-49" y="573"/>
      <point x="30" y="622"/>
      <point x="137" y="518" type="curve" smooth="yes"/>
      <point x="227" y="431"/>
      <point x="368" y="298"/>
      <point x="451" y="220" type="curve" smooth="yes"/>
      <point x="474" y="199"/>
      <point x="511" y="165"/>
      <point x="540" y="136" type="curve" smooth="yes"/>
      <point x="589" y="89"/>
      <point x="526" y="25"/>
      <point x="478" y="72" type="curve" smooth="yes"/>
      <point x="449" y="99"/>
      <point x="414" y="133"/>
      <point x="389" y="154" type="curve" smooth="yes"/>
      <point x="306" y="233"/>
      <point x="165" y="367"/>
      <point x="75" y="454" type="curve" smooth="yes"/>
      <point x="70" y="458"/>
      <point x="73" y="505"/>
      <point x="75" y="500" type="curve" smooth="yes"/>
      <point x="94" y="448"/>
      <point x="113" y="392"/>
      <point x="130" y="342" type="curve" smooth="yes"/>
      <point x="144" y="306"/>
      <point x="170" y="275"/>
      <point x="209" y="275" type="curve" smooth="yes"/>
      <point x="227" y="275"/>
      <point x="241" y="275"/>
      <point x="262" y="275" type="curve" smooth="yes"/>
      <point x="274" y="275"/>
      <point x="474" y="185"/>
      <point x="262" y="185" type="curve" smooth="yes"/>
      <point x="218" y="185"/>
      <point x="200" y="185"/>
      <point x="173" y="185" type="curve" smooth="yes"/>
      <point x="170" y="185"/>
      <point x="183" y="200"/>
      <point x="185" y="195" type="curve" smooth="yes"/>
      <point x="194" y="167"/>
      <point x="202" y="146"/>
      <point x="211" y="119" type="curve" smooth="yes"/>
      <point x="234" y="56"/>
      <point x="149" y="25"/>
    </contour>
  </outline>
</glyph>
<glyph name="B" format="2">
  <advance width="382"/>
  <unicode hex="0042"/>
  <outline>
    <contour>
      <point x="273" y="153" type="curve" smooth="yes"/>
      <point x="289" y="153"/>
      <point x="332" y="151"/>
      <point x="340" y="157" type="curve" smooth="yes"/>
      <point x="343" y="159"/>
      <point x="323" y="187"/>
      <point x="321" y="190" type="curve" smooth="yes"/>
      <point x="293" y="230"/>
      <point x="248" y="259"/>
      <point x="202" y="271" type="curve" smooth="yes"/>
      <point x="198" y="272"/>
      <point x="101" y="249"/>
      <point x="117" y="330" type="curve" smooth="yes"/>
      <point x="121" y="352"/>
      <point x="23" y="367"/>
      <point x="157" y="367" type="curve" smooth="yes"/>
      <point x="161" y="367"/>
      <point x="168" y="367"/>
      <point x="170" y="369" type="curve" smooth="yes"/>
      <point x="173" y="371"/>
      <point x="163" y="387"/>
      <point x="157" y="395" type="curve" smooth="yes"/>
      <point x="120" y="446"/>
      <point x="61" y="480"/>
      <point x="5" y="480" type="curve" smooth="yes"/>
      <point x="-14" y="480"/>
      <point x="-30" y="480"/>
      <point x="-43" y="480" type="curve" smooth="yes"/>
      <point x="-46" y="480"/>
      <point x="-23" y="495"/>
      <point x="-20" y="491" type="curve" smooth="yes"/>
      <point x="40" y="405"/>
      <point x="102" y="318"/>
      <point x="159" y="237" type="curve" smooth="yes"/>
      <point x="183" y="202"/>
      <point x="208" y="167"/>
      <point x="232" y="134" type="curve" smooth="yes"/>
      <point x="271" y="79"/>
      <point x="197" y="27"/>
      <point x="158" y="82" type="curve" smooth="yes"/>
      <point x="134" y="117"/>
      <point x="109" y="152"/>
      <point x="85" y="185" type="curve" smooth="yes"/>
      <point x="26" y="269"/>
      <point x="-36" y="356"/>
      <point x="-94" y="439" type="curve" smooth="yes"/>
      <point x="-152" y="520"/>
      <point x="-124" y="570"/>
      <point x="-43" y="570" type="curve" smooth="yes"/>
      <point x="-24" y="570"/>
      <point x="-8" y="570"/>
      <point x="5" y="570" type="curve" smooth="yes"/>
      <point x="89" y="570"/>
      <point x="176" y="524"/>
      <point x="231" y="447" type="curve" smooth="yes"/>
      <point x="285" y="369"/>
      <point x="257" y="324"/>
      <point x="228" y="299" type="curve" smooth="yes"/>
      <point x="209" y="284"/>
      <point x="192" y="277"/>
      <point x="157" y="277" type="curve" smooth="yes"/>
      <point x="144" y="277"/>
      <point x="245" y="534"/>
      <point x="205" y="314" type="curve" smooth="yes"/>
      <point x="205" y="312"/>
      <point x="-20" y="417"/>
      <point x="224" y="359" type="curve" smooth="yes"/>
      <point x="292" y="341"/>
      <point x="355" y="300"/>
      <point x="395" y="242" type="curve" smooth="yes"/>
      <point x="445" y="170"/>
      <point x="433" y="114"/>
      <point x="396" y="87" type="curve" smooth="yes"/>
      <point x="366" y="62"/>
      <point x="340" y="63"/>
      <point x="273" y="63" type="curve" smooth="yes"/>
      <point x="206" y="63"/>
      <point x="206" y="153"/>
    </contour>
  </outline>
</glyph>
<glyph name="C" format="2">
  <advance width="424"/>
  <unicode hex="0043"/>
  <outline>
    <contour>
      <point x="482" y="104" type="curve" smooth="yes"/>
      <point x="455" y="72"/>
      <point x="409" y="55"/>
      <point x="356" y="54" type="curve" smooth="yes"/>
      <point x="240" y="53"/>
      <point x="87" y="139"/>
      <point x="-18" y="288" type="curve" smooth="yes"/>
      <point x="-139" y="460"/>
      <point x="-80" y="573"/>
      <point x="55" y="573" type="curve" smooth="yes"/>
      <point x="97" y="573"/>
      <point x="150" y="563"/>
      <point x="208" y="538" type="curve" smooth="yes"/>
      <point x="270" y="512"/>
      <point x="234" y="429"/>
      <point x="172" y="456" type="curve" smooth="yes"/>
      <point x="128" y="475"/>
      <point x="87" y="483"/>
      <point x="55" y="483" type="curve" smooth="yes"/>
      <point x="-15" y="483"/>
      <point x="-7" y="429"/>
      <point x="56" y="340" type="curve" smooth="yes"/>
      <point x="138" y="223"/>
      <point x="264" y="143"/>
      <point x="354" y="144" type="curve" smooth="yes"/>
      <point x="374" y="145"/>
      <point x="402" y="149"/>
      <point x="412" y="162" type="curve" smooth="yes"/>
      <point x="455" y="214"/>
      <point x="525" y="156"/>
    </contour>
  </outline>
</glyph>
<glyph name="F" format="2">
  <advance width="355"/>
  <unicode hex="0046"/>
  <outline>
    <contour>
      <point x="247" y="264" type="curve" smooth="yes"/>
      <point x="201" y="264"/>
      <point x="144" y="264"/>
      <point x="107" y="264" type="curve" smooth="yes"/>
      <point x="104" y="264"/>
      <point x="140" y="263"/>
      <point x="143" y="259" type="curve" smooth="yes"/>
      <point x="164" y="230"/>
      <point x="169" y="222"/>
      <point x="199" y="180" type="curve" smooth="yes"/>
      <point x="290" y="50"/>
      <point x="215" y="0"/>
      <point x="122" y="132" type="curve" smooth="yes"/>
      <point x="37" y="252"/>
      <point x="-51" y="376"/>
      <point x="-95" y="439" type="curve" smooth="yes"/>
      <point x="-149" y="514"/>
      <point x="-128" y="570"/>
      <point x="-40" y="570" type="curve" smooth="yes"/>
      <point x="-3" y="570"/>
      <point x="69" y="570"/>
      <point x="111" y="570" type="curve" smooth="yes"/>
      <point x="179" y="570"/>
      <point x="179" y="480"/>
      <point x="111" y="480" type="curve" smooth="yes"/>
      <point x="49" y="480"/>
      <point x="-15" y="480"/>
      <point x="-40" y="480" type="curve" smooth="yes"/>
      <point x="-44" y="480"/>
      <point x="-24" y="495"/>
      <point x="-21" y="491" type="curve" smooth="yes"/>
      <point x="23" y="428"/>
      <point x="111" y="304"/>
      <point x="196" y="184" type="curve" smooth="yes"/>
      <point x="200" y="179"/>
      <point x="129" y="123"/>
      <point x="125" y="128" type="curve" smooth="yes"/>
      <point x="95" y="170"/>
      <point x="90" y="178"/>
      <point x="69" y="207" type="curve" smooth="yes"/>
      <point x="4" y="299"/>
      <point x="34" y="354"/>
      <point x="107" y="354" type="curve" smooth="yes"/>
      <point x="162" y="354"/>
      <point x="216" y="354"/>
      <point x="247" y="354" type="curve" smooth="yes"/>
      <point x="315" y="354"/>
      <point x="315" y="264"/>
    </contour>
  </outline>
</glyph>
<glyph name="G" format="2">
  <advance width="461"/>
  <unicode hex="0047"/>
  <outline>
    <contour>
      <point x="185" y="462" type="curve" smooth="yes"/>
      <point x="136" y="477"/>
      <point x="94" y="485"/>
      <point x="63" y="485" type="curve" smooth="yes"/>
      <point x="-19" y="484"/>
      <point x="-3" y="422"/>
      <point x="55" y="340" type="curve" smooth="yes"/>
      <point x="130" y="233"/>
      <point x="256" y="143"/>
      <point x="362" y="143" type="curve" smooth="yes"/>
      <point x="367" y="143"/>
      <point x="416" y="134"/>
      <point x="415" y="136" type="curve" smooth="yes"/>
      <point x="406" y="157"/>
      <point x="384" y="186"/>
      <point x="358" y="223" type="curve" smooth="yes"/>
      <point x="343" y="245"/>
      <point x="336" y="254"/>
      <point x="322" y="254" type="curve" smooth="yes"/>
      <point x="288" y="254"/>
      <point x="254" y="254"/>
      <point x="238" y="254" type="curve" smooth="yes"/>
      <point x="171" y="254"/>
      <point x="171" y="344"/>
      <point x="238" y="344" type="curve" smooth="yes"/>
      <point x="262" y="344"/>
      <point x="299" y="344"/>
      <point x="322" y="344" type="curve" smooth="yes"/>
      <point x="360" y="344"/>
      <point x="390" y="334"/>
      <point x="432" y="275" type="curve" smooth="yes"/>
      <point x="469" y="221"/>
      <point x="486" y="200"/>
      <point x="499" y="168" type="curve" smooth="yes"/>
      <point x="517" y="120"/>
      <point x="483" y="53"/>
      <point x="362" y="53" type="curve" smooth="yes"/>
      <point x="228" y="53"/>
      <point x="76" y="153"/>
      <point x="-19" y="288" type="curve" smooth="yes"/>
      <point x="-128" y="443"/>
      <point x="-94" y="574"/>
      <point x="63" y="575" type="curve" smooth="yes"/>
      <point x="102" y="575"/>
      <point x="150" y="567"/>
      <point x="211" y="548" type="curve" smooth="yes"/>
      <point x="276" y="528"/>
      <point x="249" y="442"/>
    </contour>
  </outline>
</glyph>
<glyph name="I" format="2">
  <advance width="190"/>
  <unicode hex="0049"/>
  <outline>
    <contour>
      <point x="167" y="78" type="curve" smooth="yes"/>
      <point x="146" y="108"/>
      <point x="123" y="141"/>
      <point x="102" y="172" type="curve" smooth="yes"/>
      <point x="42" y="256"/>
      <point x="-10" y="329"/>
      <point x="-66" y="408" type="curve" smooth="yes"/>
      <point x="-86" y="436"/>
      <point x="-111" y="473"/>
      <point x="-132" y="502" type="curve" smooth="yes"/>
      <point x="-172" y="556"/>
      <point x="-99" y="609"/>
      <point x="-60" y="554" type="curve" smooth="yes"/>
      <point x="-39" y="526"/>
      <point x="-14" y="489"/>
      <point x="8" y="460" type="curve" smooth="yes"/>
      <point x="68" y="375"/>
      <point x="120" y="302"/>
      <point x="176" y="222" type="curve" smooth="yes"/>
      <point x="197" y="191"/>
      <point x="220" y="160"/>
      <point x="241" y="130" type="curve" smooth="yes"/>
      <point x="280" y="75"/>
      <point x="206" y="23"/>
    </contour>
  </outline>
</glyph>
<glyph name="K" format="2">
  <advance width="417"/>
  <unicode hex="004B"/>
  <outline>
    <contour>
      <point x="-70" y="552" type="curve" smooth="yes"/>
      <point x="-48" y="521"/>
      <point x="-26" y="490"/>
      <point x="-4" y="457" type="curve" smooth="yes"/>
      <point x="56" y="373"/>
      <point x="116" y="288"/>
      <point x="177" y="202" type="curve" smooth="yes"/>
      <point x="194" y="178"/>
      <point x="215" y="149"/>
      <point x="230" y="128" type="curve" smooth="yes"/>
      <point x="269" y="73"/>
      <point x="196" y="21"/>
      <point x="156" y="76" type="curve" smooth="yes"/>
      <point x="141" y="97"/>
      <point x="120" y="126"/>
      <point x="103" y="150" type="curve" smooth="yes"/>
      <point x="42" y="236"/>
      <point x="-18" y="321"/>
      <point x="-78" y="407" type="curve" smooth="yes"/>
      <point x="-100" y="438"/>
      <point x="-122" y="469"/>
      <point x="-144" y="500" type="curve" smooth="yes"/>
      <point x="-183" y="555"/>
      <point x="-109" y="607"/>
    </contour>
    <contour>
      <point x="205" y="510" type="curve" smooth="yes"/>
      <point x="195" y="482"/>
      <point x="186" y="456"/>
      <point x="173" y="428" type="curve" smooth="yes"/>
      <point x="163" y="407"/>
      <point x="143" y="360"/>
      <point x="132" y="339" type="curve"/>
      <point x="132" y="339"/>
      <point x="180" y="315"/>
      <point x="186" y="312" type="curve" smooth="yes"/>
      <point x="249" y="278"/>
      <point x="393" y="196"/>
      <point x="489" y="141" type="curve" smooth="yes"/>
      <point x="548" y="107"/>
      <point x="503" y="29"/>
      <point x="445" y="63" type="curve" smooth="yes"/>
      <point x="349" y="118"/>
      <point x="205" y="200"/>
      <point x="142" y="234" type="curve" smooth="yes"/>
      <point x="36" y="293"/>
      <point x="26" y="322"/>
      <point x="52" y="381" type="curve"/>
      <point x="61" y="398"/>
      <point x="83" y="447"/>
      <point x="91" y="466" type="curve" smooth="yes"/>
      <point x="102" y="490"/>
      <point x="111" y="516"/>
      <point x="121" y="542" type="curve" smooth="yes"/>
      <point x="144" y="605"/>
      <point x="229" y="574"/>
    </contour>
  </outline>
</glyph>
<glyph name="L" format="2">
  <advance width="352"/>
  <unicode hex="004C"/>
  <outline>
    <contour>
      <point x="399" y="63" type="curve" smooth="yes"/>
      <point x="347" y="63"/>
      <point x="305" y="63"/>
      <point x="262" y="63" type="curve" smooth="yes"/>
      <point x="180" y="63"/>
      <point x="154" y="88"/>
      <point x="79" y="193" type="curve" smooth="yes"/>
      <point x="28" y="265"/>
      <point x="-24" y="339"/>
      <point x="-79" y="417" type="curve" smooth="yes"/>
      <point x="-99" y="446"/>
      <point x="-119" y="474"/>
      <point x="-139" y="502" type="curve" smooth="yes"/>
      <point x="-178" y="557"/>
      <point x="-105" y="609"/>
      <point x="-65" y="554" type="curve" smooth="yes"/>
      <point x="-45" y="526"/>
      <point x="-25" y="498"/>
      <point x="-5" y="469" type="curve" smooth="yes"/>
      <point x="46" y="397"/>
      <point x="98" y="323"/>
      <point x="153" y="245" type="curve" smooth="yes"/>
      <point x="200" y="179"/>
      <point x="211" y="153"/>
      <point x="262" y="153" type="curve" smooth="yes"/>
      <point x="325" y="153"/>
      <point x="364" y="153"/>
      <point x="399" y="153" type="curve" smooth="yes"/>
      <point x="467" y="153"/>
      <point x="467" y="63"/>
    </contour>
  </outline>
</glyph>
<glyph name="M" format="2">
  <advance width="572"/>
  <unicode hex="004D"/>
  <outline>
    <contour>
      <point x="551" y="76" type="curve" smooth="yes"/>
      <point x="532" y="104"/>
      <point x="512" y="132"/>
      <point x="493" y="158" type="curve" smooth="yes"/>
      <point x="461" y="203"/>
      <point x="430" y="247"/>
      <point x="397" y="293" type="curve" smooth="yes"/>
      <point x="371" y="330"/>
      <point x="350" y="361"/>
      <point x="307" y="421" type="curve" smooth="yes"/>
      <point x="301" y="429"/>
      <point x="317" y="470"/>
      <point x="320" y="461" type="curve" smooth="yes"/>
      <point x="333" y="420"/>
      <point x="348" y="377"/>
      <point x="363" y="334" type="curve" smooth="yes"/>
      <point x="379" y="286"/>
      <point x="395" y="239"/>
      <point x="410" y="194" type="curve" smooth="yes"/>
      <point x="456" y="63"/>
      <point x="412" y="16"/>
      <point x="274" y="146" type="curve" smooth="yes"/>
      <point x="226" y="191"/>
      <point x="175" y="238"/>
      <point x="123" y="286" type="curve" smooth="yes"/>
      <point x="77" y="330"/>
      <point x="31" y="372"/>
      <point x="-13" y="413" type="curve" smooth="yes"/>
      <point x="-23" y="421"/>
      <point x="-19" y="480"/>
      <point x="-13" y="472" type="curve" smooth="yes"/>
      <point x="17" y="430"/>
      <point x="47" y="388"/>
      <point x="77" y="345" type="curve" smooth="yes"/>
      <point x="109" y="300"/>
      <point x="141" y="254"/>
      <point x="175" y="207" type="curve" smooth="yes"/>
      <point x="193" y="181"/>
      <point x="212" y="154"/>
      <point x="230" y="129" type="curve" smooth="yes"/>
      <point x="270" y="74"/>
      <point x="197" y="21"/>
      <point x="158" y="75" type="curve" smooth="yes"/>
      <point x="138" y="102"/>
      <point x="119" y="129"/>
      <point x="101" y="155" type="curve" smooth="yes"/>
      <point x="69" y="200"/>
      <point x="37" y="246"/>
      <point x="3" y="293" type="curve" smooth="yes"/>
      <point x="-27" y="336"/>
      <point x="-57" y="378"/>
      <point x="-87" y="420" type="curve" smooth="yes"/>
      <point x="-198" y="577"/>
      <point x="-127" y="641"/>
      <point x="47" y="479" type="curve" smooth="yes"/>
      <point x="93" y="438"/>
      <point x="139" y="396"/>
      <point x="185" y="352" type="curve" smooth="yes"/>
      <point x="235" y="305"/>
      <point x="285" y="258"/>
      <point x="336" y="212" type="curve" smooth="yes"/>
      <point x="343" y="205"/>
      <point x="328" y="158"/>
      <point x="326" y="164" type="curve" smooth="yes"/>
      <point x="310" y="209"/>
      <point x="293" y="256"/>
      <point x="277" y="304" type="curve" smooth="yes"/>
      <point x="262" y="349"/>
      <point x="247" y="392"/>
      <point x="234" y="433" type="curve" smooth="yes"/>
      <point x="180" y="600"/>
      <point x="267" y="634"/>
      <point x="381" y="473" type="curve" smooth="yes"/>
      <point x="423" y="414"/>
      <point x="444" y="383"/>
      <point x="471" y="345" type="curve" smooth="yes"/>
      <point x="504" y="299"/>
      <point x="535" y="255"/>
      <point x="567" y="210" type="curve" smooth="yes"/>
      <point x="586" y="182"/>
      <point x="606" y="154"/>
      <point x="625" y="128" type="curve" smooth="yes"/>
      <point x="664" y="73"/>
      <point x="590" y="21"/>
    </contour>
  </outline>
</glyph>
<glyph name="P" format="2">
  <advance width="393"/>
  <unicode hex="0050"/>
  <outline>
    <contour>
      <point x="140" y="331" type="curve" smooth="yes"/>
      <point x="158" y="331"/>
      <point x="178" y="331"/>
      <point x="198" y="331" type="curve" smooth="yes"/>
      <point x="227" y="331"/>
      <point x="216" y="349"/>
      <point x="195" y="379" type="curve" smooth="yes"/>
      <point x="155" y="436"/>
      <point x="84" y="480"/>
      <point x="21" y="480" type="curve" smooth="yes"/>
      <point x="-6" y="480"/>
      <point x="-25" y="480"/>
      <point x="-42" y="480" type="curve" smooth="yes"/>
      <point x="-46" y="480"/>
      <point x="-23" y="495"/>
      <point x="-20" y="491" type="curve" smooth="yes"/>
      <point x="42" y="403"/>
      <point x="110" y="307"/>
      <point x="166" y="228" type="curve" smooth="yes"/>
      <point x="189" y="194"/>
      <point x="212" y="162"/>
      <point x="235" y="130" type="curve" smooth="yes"/>
      <point x="274" y="74"/>
      <point x="200" y="23"/>
      <point x="161" y="78" type="curve" smooth="yes"/>
      <point x="138" y="112"/>
      <point x="115" y="144"/>
      <point x="92" y="176" type="curve" smooth="yes"/>
      <point x="36" y="255"/>
      <point x="-32" y="351"/>
      <point x="-94" y="439" type="curve" smooth="yes"/>
      <point x="-151" y="519"/>
      <point x="-124" y="570"/>
      <point x="-42" y="570" type="curve" smooth="yes"/>
      <point x="-16" y="570"/>
      <point x="3" y="570"/>
      <point x="21" y="570" type="curve" smooth="yes"/>
      <point x="112" y="570"/>
      <point x="211" y="514"/>
      <point x="269" y="431" type="curve" smooth="yes"/>
      <point x="343" y="327"/>
      <point x="301" y="241"/>
      <point x="198" y="241" type="curve" smooth="yes"/>
      <point x="169" y="241"/>
      <point x="152" y="241"/>
      <point x="140" y="241" type="curve" smooth="yes"/>
      <point x="73" y="241"/>
      <point x="73" y="331"/>
    </contour>
  </outline>
</glyph>
<glyph name="T" format="2">
  <advance width="352"/>
  <unicode hex="0054"/>
  <outline>
    <contour>
      <point x="107" y="477" type="curve" smooth="yes"/>
      <point x="28" y="477"/>
      <point x="-38" y="477"/>
      <point x="-91" y="477" type="curve" smooth="yes"/>
      <point x="-112" y="477"/>
      <point x="-342" y="567"/>
      <point x="-98" y="567" type="curve" smooth="yes"/>
      <point x="-32" y="567"/>
      <point x="36" y="526"/>
      <point x="86" y="456" type="curve" smooth="yes"/>
      <point x="127" y="398"/>
      <point x="198" y="296"/>
      <point x="238" y="241" type="curve" smooth="yes"/>
      <point x="278" y="184"/>
      <point x="303" y="149"/>
      <point x="318" y="128" type="curve" smooth="yes"/>
      <point x="357" y="73"/>
      <point x="284" y="21"/>
      <point x="244" y="76" type="curve" smooth="yes"/>
      <point x="229" y="97"/>
      <point x="204" y="132"/>
      <point x="164" y="189" type="curve" smooth="yes"/>
      <point x="128" y="240"/>
      <point x="57" y="342"/>
      <point x="12" y="404" type="curve" smooth="yes"/>
      <point x="-17" y="445"/>
      <point x="-59" y="477"/>
      <point x="-98" y="477" type="curve" smooth="yes"/>
      <point x="-119" y="477"/>
      <point x="-340" y="567"/>
      <point x="-91" y="567" type="curve" smooth="yes"/>
      <point x="-12" y="567"/>
      <point x="54" y="567"/>
      <point x="107" y="567" type="curve" smooth="yes"/>
      <point x="175" y="567"/>
      <point x="175" y="477"/>
    </contour>
  </outline>
</glyph>
<glyph name="bracketright" format="2">
  <advance width="304"/>
  <unicode hex="005D"/>
  <outline>
    <contour>
      <point x="242" y="38" type="curve" smooth="yes"/>
      <point x="374" y="38" type="line"/>
      <point x="337" y="-33" type="line"/>
      <point x="-81" y="558" type="line"/>
      <point x="-44" y="539" type="line"/>
      <point x="-176" y="539" type="line" smooth="yes"/>
      <point x="-243" y="539"/>
      <point x="-243" y="629"/>
      <point x="-176" y="629" type="curve" smooth="yes"/>
      <point x="-44" y="629" type="line" smooth="yes"/>
      <point x="-29" y="629"/>
      <point x="-16" y="622"/>
      <point x="-7" y="610" type="curve" smooth="yes"/>
      <point x="411" y="19" type="line" smooth="yes"/>
      <point x="432" y="-11"/>
      <point x="411" y="-52"/>
      <point x="374" y="-52" type="curve" smooth="yes"/>
      <point x="242" y="-52" type="line" smooth="yes"/>
      <point x="175" y="-52"/>
      <point x="175" y="38"/>
    </contour>
  </outline>
</glyph>
<glyph name="underscore" format="2">
  <advance width="379"/>
  <unicode hex="005F"/>
  <outline>
    <contour>
      <point x="548" y="-24" type="curve" smooth="yes"/>
      <point x="394" y="-24"/>
      <point x="271" y="-24"/>
      <point x="167" y="-24" type="curve" smooth="yes"/>
      <point x="100" y="-24"/>
      <point x="100" y="66"/>
      <point x="167" y="66" type="curve" smooth="yes"/>
      <point x="322" y="66"/>
      <point x="445" y="66"/>
      <point x="548" y="66" type="curve" smooth="yes"/>
      <point x="616" y="66"/>
      <point x="616" y="-24"/>
    </contour>
  </outline>
</glyph>
<glyph name="a" format="2">
  <advance width="412"/>
  <unicode hex="0061"/>
  <outline>
    <contour>
      <point x="271" y="419" type="curve" smooth="yes"/>
      <point x="300" y="378"/>
      <point x="337" y="325"/>
      <point x="383" y="260" type="curve" smooth="yes"/>
      <point x="471" y="135"/>
      <point x="417" y="52"/>
      <point x="306" y="52" type="curve" smooth="yes"/>
      <point x="213" y="52"/>
      <point x="96" y="121"/>
      <point x="22" y="223" type="curve" smooth="yes"/>
      <point x="-65" y="349"/>
      <point x="-23" y="446"/>
      <point x="90" y="446" type="curve" smooth="yes"/>
      <point x="183" y="446"/>
      <point x="299" y="379"/>
      <point x="371" y="277" type="curve" smooth="yes"/>
      <point x="390" y="251"/>
      <point x="418" y="210"/>
      <point x="432" y="190" type="curve" smooth="yes"/>
      <point x="448" y="167"/>
      <point x="466" y="143"/>
      <point x="482" y="120" type="curve" smooth="yes"/>
      <point x="520" y="64"/>
      <point x="447" y="13"/>
      <point x="408" y="68" type="curve" smooth="yes"/>
      <point x="392" y="91"/>
      <point x="376" y="115"/>
      <point x="358" y="138" type="curve" smooth="yes"/>
      <point x="344" y="158"/>
      <point x="316" y="199"/>
      <point x="297" y="225" type="curve" smooth="yes"/>
      <point x="245" y="299"/>
      <point x="157" y="356"/>
      <point x="90" y="356" type="curve" smooth="yes"/>
      <point x="48" y="356"/>
      <point x="63" y="321"/>
      <point x="96" y="275" type="curve" smooth="yes"/>
      <point x="148" y="202"/>
      <point x="239" y="142"/>
      <point x="306" y="142" type="curve" smooth="yes"/>
      <point x="348" y="142"/>
      <point x="343" y="161"/>
      <point x="309" y="208" type="curve" smooth="yes"/>
      <point x="262" y="275"/>
      <point x="225" y="327"/>
      <point x="197" y="367" type="curve" smooth="yes"/>
      <point x="158" y="422"/>
      <point x="232" y="474"/>
    </contour>
  </outline>
</glyph>
<glyph name="e" format="2">
  <advance width="388"/>
  <unicode hex="0065"/>
  <outline>
    <contour>
      <point x="118" y="297" type="curve" smooth="yes"/>
      <point x="176" y="297"/>
      <point x="221" y="297"/>
      <point x="265" y="297" type="curve" smooth="yes"/>
      <point x="269" y="297"/>
      <point x="260" y="270"/>
      <point x="258" y="273" type="curve" smooth="yes"/>
      <point x="212" y="324"/>
      <point x="148" y="358"/>
      <point x="97" y="358" type="curve" smooth="yes"/>
      <point x="54" y="358"/>
      <point x="67" y="326"/>
      <point x="102" y="277" type="curve" smooth="yes"/>
      <point x="159" y="196"/>
      <point x="248" y="145"/>
      <point x="318" y="145" type="curve" smooth="yes"/>
      <point x="341" y="145"/>
      <point x="362" y="150"/>
      <point x="377" y="165" type="curve" smooth="yes"/>
      <point x="426" y="211"/>
      <point x="488" y="146"/>
      <point x="439" y="99" type="curve" smooth="yes"/>
      <point x="408" y="70"/>
      <point x="367" y="55"/>
      <point x="318" y="55" type="curve" smooth="yes"/>
      <point x="224" y="55"/>
      <point x="105" y="116"/>
      <point x="28" y="225" type="curve" smooth="yes"/>
      <point x="-63" y="352"/>
      <point x="-15" y="448"/>
      <point x="97" y="448" type="curve" smooth="yes"/>
      <point x="171" y="448"/>
      <point x="260" y="406"/>
      <point x="324" y="333" type="curve" smooth="yes"/>
      <point x="389" y="261"/>
      <point x="361" y="207"/>
      <point x="265" y="207" type="curve" smooth="yes"/>
      <point x="199" y="207"/>
      <point x="157" y="207"/>
      <point x="118" y="207" type="curve" smooth="yes"/>
      <point x="51" y="207"/>
      <point x="51" y="297"/>
    </contour>
  </outline>
</glyph>
<glyph name="f" format="2">
  <advance width="258"/>
  <unicode hex="0066"/>
  <outline>
    <contour>
      <point x="15" y="512" type="curve" smooth="yes"/>
      <point x="4" y="516"/>
      <point x="-17" y="524"/>
      <point x="-10" y="515" type="curve" smooth="yes"/>
      <point x="60" y="416"/>
      <point x="144" y="297"/>
      <point x="184" y="240" type="curve" smooth="yes"/>
      <point x="210" y="203"/>
      <point x="241" y="160"/>
      <point x="262" y="130" type="curve" smooth="yes"/>
      <point x="301" y="75"/>
      <point x="227" y="23"/>
      <point x="188" y="78" type="curve" smooth="yes"/>
      <point x="167" y="109"/>
      <point x="136" y="152"/>
      <point x="110" y="188" type="curve" smooth="yes"/>
      <point x="70" y="245"/>
      <point x="-14" y="364"/>
      <point x="-84" y="463" type="curve" smooth="yes"/>
      <point x="-156" y="564"/>
      <point x="-85" y="645"/>
      <point x="47" y="596" type="curve" smooth="yes"/>
      <point x="110" y="573"/>
      <point x="79" y="488"/>
    </contour>
    <contour>
      <point x="122" y="351" type="curve" smooth="yes"/>
      <point x="93" y="351"/>
      <point x="75" y="351"/>
      <point x="60" y="351" type="curve" smooth="yes"/>
      <point x="27" y="351"/>
      <point x="3" y="351"/>
      <point x="-18" y="351" type="curve" smooth="yes"/>
      <point x="-35" y="351"/>
      <point x="-45" y="351"/>
      <point x="-57" y="351" type="curve" smooth="yes"/>
      <point x="-124" y="351"/>
      <point x="-124" y="441"/>
      <point x="-57" y="441" type="curve" smooth="yes"/>
      <point x="-39" y="441"/>
      <point x="-29" y="441"/>
      <point x="-18" y="441" type="curve" smooth="yes"/>
      <point x="14" y="441"/>
      <point x="38" y="441"/>
      <point x="60" y="441" type="curve" smooth="yes"/>
      <point x="82" y="441"/>
      <point x="102" y="441"/>
      <point x="122" y="441" type="curve" smooth="yes"/>
      <point x="190" y="441"/>
      <point x="190" y="351"/>
    </contour>
  </outline>
</glyph>
<glyph name="g" format="2">
  <advance width="394"/>
  <unicode hex="0067"/>
  <outline>
    <contour>
      <point x="276" y="50" type="curve" smooth="yes"/>
      <point x="356" y="21"/>
      <point x="432" y="14"/>
      <point x="383" y="84" type="curve" smooth="yes"/>
      <point x="346" y="137"/>
      <point x="308" y="191"/>
      <point x="267" y="248" type="curve" smooth="yes"/>
      <point x="224" y="309"/>
      <point x="145" y="358"/>
      <point x="85" y="358" type="curve" smooth="yes"/>
      <point x="51" y="358"/>
      <point x="62" y="334"/>
      <point x="87" y="298" type="curve" smooth="yes"/>
      <point x="132" y="235"/>
      <point x="211" y="185"/>
      <point x="272" y="185" type="curve" smooth="yes"/>
      <point x="306" y="185"/>
      <point x="295" y="209"/>
      <point x="269" y="245" type="curve" smooth="yes"/>
      <point x="238" y="289"/>
      <point x="208" y="331"/>
      <point x="178" y="374" type="curve" smooth="yes"/>
      <point x="139" y="429"/>
      <point x="213" y="481"/>
      <point x="252" y="426" type="curve" smooth="yes"/>
      <point x="283" y="382"/>
      <point x="313" y="340"/>
      <point x="343" y="297" type="curve" smooth="yes"/>
      <point x="421" y="186"/>
      <point x="378" y="95"/>
      <point x="272" y="95" type="curve" smooth="yes"/>
      <point x="185" y="95"/>
      <point x="78" y="155"/>
      <point x="13" y="246" type="curve" smooth="yes"/>
      <point x="-64" y="357"/>
      <point x="-21" y="448"/>
      <point x="85" y="448" type="curve" smooth="yes"/>
      <point x="171" y="448"/>
      <point x="278" y="389"/>
      <point x="341" y="300" type="curve" smooth="yes"/>
      <point x="378" y="247"/>
      <point x="416" y="193"/>
      <point x="457" y="136" type="curve" smooth="yes"/>
      <point x="565" y="-18"/>
      <point x="422" y="-99"/>
      <point x="246" y="-34" type="curve" smooth="yes"/>
      <point x="182" y="-11"/>
      <point x="213" y="73"/>
    </contour>
  </outline>
</glyph>
<glyph name="j" format="2">
  <advance width="173"/>
  <unicode hex="006A"/>
  <outline>
    <contour>
      <point x="28" y="426" type="curve" smooth="yes"/>
      <point x="49" y="396"/>
      <point x="80" y="352"/>
      <point x="118" y="298" type="curve" smooth="yes"/>
      <point x="153" y="249"/>
      <point x="208" y="172"/>
      <point x="266" y="90" type="curve" smooth="yes"/>
      <point x="345" y="-24"/>
      <point x="262" y="-78"/>
      <point x="163" y="-48" type="curve" smooth="yes"/>
      <point x="98" y="-29"/>
      <point x="124" y="58"/>
      <point x="189" y="38" type="curve" smooth="yes"/>
      <point x="194" y="37"/>
      <point x="196" y="33"/>
      <point x="192" y="38" type="curve" smooth="yes"/>
      <point x="134" y="120"/>
      <point x="79" y="197"/>
      <point x="44" y="246" type="curve" smooth="yes"/>
      <point x="6" y="300"/>
      <point x="-25" y="344"/>
      <point x="-46" y="374" type="curve" smooth="yes"/>
      <point x="-85" y="429"/>
      <point x="-11" y="481"/>
    </contour>
    <contour>
      <point x="-135" y="500" type="curve" smooth="yes"/>
      <point x="-142" y="510"/>
      <point x="-150" y="522"/>
      <point x="-158" y="532" type="curve" smooth="yes"/>
      <point x="-197" y="587"/>
      <point x="-123" y="639"/>
      <point x="-84" y="584" type="curve" smooth="yes"/>
      <point x="-78" y="574"/>
      <point x="-70" y="564"/>
      <point x="-63" y="556" type="curve" smooth="yes"/>
      <point x="-22" y="502"/>
      <point x="-93" y="447"/>
    </contour>
  </outline>
</glyph>
<glyph name="n" format="2">
  <advance width="402"/>
  <unicode hex="006E"/>
  <outline>
    <contour>
      <point x="399" y="75" type="curve" smooth="yes"/>
      <point x="376" y="107"/>
      <point x="353" y="139"/>
      <point x="330" y="171" type="curve" smooth="yes"/>
      <point x="311" y="199"/>
      <point x="290" y="228"/>
      <point x="272" y="253" type="curve" smooth="yes"/>
      <point x="227" y="318"/>
      <point x="166" y="356"/>
      <point x="114" y="356" type="curve" smooth="yes"/>
      <point x="69" y="356"/>
      <point x="75" y="333"/>
      <point x="112" y="282" type="curve" smooth="yes"/>
      <point x="140" y="242"/>
      <point x="152" y="225"/>
      <point x="176" y="191" type="curve" smooth="yes"/>
      <point x="196" y="163"/>
      <point x="269" y="-99"/>
      <point x="102" y="139" type="curve" smooth="yes"/>
      <point x="67" y="188"/>
      <point x="11" y="268"/>
      <point x="-1" y="286" type="curve" smooth="yes"/>
      <point x="-22" y="315"/>
      <point x="-42" y="343"/>
      <point x="-62" y="371" type="curve" smooth="yes"/>
      <point x="-101" y="426"/>
      <point x="-28" y="478"/>
      <point x="12" y="423" type="curve" smooth="yes"/>
      <point x="32" y="395"/>
      <point x="52" y="367"/>
      <point x="71" y="338" type="curve" smooth="yes"/>
      <point x="85" y="320"/>
      <point x="141" y="240"/>
      <point x="176" y="191" type="curve" smooth="yes"/>
      <point x="196" y="163"/>
      <point x="269" y="-99"/>
      <point x="102" y="139" type="curve" smooth="yes"/>
      <point x="78" y="173"/>
      <point x="66" y="190"/>
      <point x="38" y="230" type="curve" smooth="yes"/>
      <point x="-53" y="358"/>
      <point x="0" y="446"/>
      <point x="114" y="446" type="curve" smooth="yes"/>
      <point x="191" y="446"/>
      <point x="280" y="400"/>
      <point x="344" y="307" type="curve" smooth="yes"/>
      <point x="364" y="280"/>
      <point x="385" y="251"/>
      <point x="404" y="223" type="curve" smooth="yes"/>
      <point x="427" y="191"/>
      <point x="448" y="159"/>
      <point x="471" y="129" type="curve" smooth="yes"/>
      <point x="511" y="75"/>
      <point x="439" y="21"/>
    </contour>
  </outline>
</glyph>
<glyph name="u" format="2">
  <advance width="402"/>
  <unicode hex="0075"/>
  <outline>
    <contour>
      <point x="5" y="423" type="curve" smooth="yes"/>
      <point x="56" y="351"/>
      <point x="96" y="294"/>
      <point x="131" y="246" type="curve" smooth="yes"/>
      <point x="175" y="182"/>
      <point x="236" y="142"/>
      <point x="291" y="142" type="curve" smooth="yes"/>
      <point x="333" y="142"/>
      <point x="327" y="168"/>
      <point x="300" y="206" type="curve" smooth="yes"/>
      <point x="280" y="234"/>
      <point x="244" y="285"/>
      <point x="226" y="311" type="curve" smooth="yes"/>
      <point x="207" y="338"/>
      <point x="134" y="598"/>
      <point x="300" y="363" type="curve" smooth="yes"/>
      <point x="328" y="323"/>
      <point x="374" y="259"/>
      <point x="410" y="207" type="curve" smooth="yes"/>
      <point x="429" y="180"/>
      <point x="451" y="149"/>
      <point x="469" y="124" type="curve" smooth="yes"/>
      <point x="508" y="70"/>
      <point x="435" y="17"/>
      <point x="395" y="72" type="curve" smooth="yes"/>
      <point x="377" y="97"/>
      <point x="355" y="128"/>
      <point x="336" y="155" type="curve" smooth="yes"/>
      <point x="299" y="208"/>
      <point x="253" y="272"/>
      <point x="226" y="311" type="curve" smooth="yes"/>
      <point x="207" y="338"/>
      <point x="134" y="598"/>
      <point x="300" y="363" type="curve" smooth="yes"/>
      <point x="320" y="335"/>
      <point x="356" y="284"/>
      <point x="374" y="258" type="curve" smooth="yes"/>
      <point x="447" y="153"/>
      <point x="407" y="52"/>
      <point x="291" y="52" type="curve" smooth="yes"/>
      <point x="210" y="52"/>
      <point x="122" y="101"/>
      <point x="57" y="194" type="curve" smooth="yes"/>
      <point x="6" y="266"/>
      <point x="-34" y="323"/>
      <point x="-69" y="371" type="curve" smooth="yes"/>
      <point x="-108" y="426"/>
      <point x="-34" y="478"/>
    </contour>
  </outline>
</glyph>
<glyph name="v" format="2">
  <advance width="345"/>
  <unicode hex="0076"/>
  <outline>
    <contour>
      <point x="-29" y="430" type="curve" smooth="yes"/>
      <point x="19" y="386"/>
      <point x="48" y="360"/>
      <point x="75" y="335" type="curve" smooth="yes"/>
      <point x="135" y="280"/>
      <point x="173" y="245"/>
      <point x="235" y="190" type="curve" smooth="yes"/>
      <point x="241" y="184"/>
      <point x="233" y="137"/>
      <point x="231" y="143" type="curve" smooth="yes"/>
      <point x="214" y="197"/>
      <point x="202" y="236"/>
      <point x="183" y="293" type="curve" smooth="yes"/>
      <point x="175" y="318"/>
      <point x="169" y="342"/>
      <point x="155" y="382" type="curve" smooth="yes"/>
      <point x="132" y="445"/>
      <point x="216" y="476"/>
      <point x="239" y="412" type="curve" smooth="yes"/>
      <point x="255" y="370"/>
      <point x="261" y="344"/>
      <point x="269" y="321" type="curve" smooth="yes"/>
      <point x="286" y="266"/>
      <point x="298" y="227"/>
      <point x="317" y="169" type="curve" smooth="yes"/>
      <point x="353" y="54"/>
      <point x="309" y="4"/>
      <point x="175" y="122" type="curve" smooth="yes"/>
      <point x="113" y="177"/>
      <point x="75" y="214"/>
      <point x="13" y="269" type="curve" smooth="yes"/>
      <point x="-14" y="294"/>
      <point x="-41" y="320"/>
      <point x="-89" y="364" type="curve" smooth="yes"/>
      <point x="-139" y="409"/>
      <point x="-78" y="476"/>
    </contour>
  </outline>
</glyph>
<glyph name="exclamdown" format="2">
  <advance width="185"/>
  <unicode hex="00A1"/>
  <outline>
    <contour>
      <point x="112" y="310" type="curve" smooth="yes"/>
      <point x="290" y="59" type="line" smooth="yes"/>
      <point x="329" y="4"/>
      <point x="255" y="-48"/>
      <point x="216" y="7" type="curve" smooth="yes"/>
      <point x="38" y="258" type="line" smooth="yes"/>
      <point x="-1" y="313"/>
      <point x="73" y="365"/>
    </contour>
    <contour>
      <point x="-26" y="381" type="curve" smooth="yes"/>
      <point x="-110" y="394"/>
      <point x="-118" y="490"/>
      <point x="-49" y="502" type="curve" smooth="yes"/>
      <point x="17" y="514"/>
      <point x="33" y="426"/>
      <point x="-33" y="414" type="curve" smooth="yes"/>
      <point x="-35" y="413"/>
      <point x="-14" y="471"/>
      <point x="-12" y="471" type="curve" smooth="yes"/>
      <point x="54" y="461"/>
      <point x="41" y="372"/>
    </contour>
  </outline>
</glyph>
<glyph name="yen" format="2">
  <advance width="423"/>
  <unicode hex="00A5"/>
  <outline>
    <contour>
      <point x="-105" y="562" type="curve" smooth="yes"/>
      <point x="205" y="334" type="line"/>
      <point x="133" y="296" type="line"/>
      <point x="121" y="524" type="line" smooth="yes"/>
      <point x="118" y="591"/>
      <point x="207" y="596"/>
      <point x="211" y="528" type="curve" smooth="yes"/>
      <point x="223" y="300" type="line" smooth="yes"/>
      <point x="225" y="262"/>
      <point x="182" y="239"/>
      <point x="151" y="262" type="curve" smooth="yes"/>
      <point x="-159" y="490" type="line" smooth="yes"/>
      <point x="-213" y="530"/>
      <point x="-160" y="602"/>
    </contour>
    <contour>
      <point x="215" y="324" type="curve" smooth="yes"/>
      <point x="354" y="128" type="line" smooth="yes"/>
      <point x="393" y="73"/>
      <point x="319" y="21"/>
      <point x="280" y="76" type="curve" smooth="yes"/>
      <point x="141" y="272" type="line" smooth="yes"/>
      <point x="102" y="327"/>
      <point x="176" y="379"/>
    </contour>
    <contour>
      <point x="391" y="140" type="curve" smooth="yes"/>
      <point x="124" y="140" type="line" smooth="yes"/>
      <point x="56" y="140"/>
      <point x="57" y="230"/>
      <point x="124" y="230" type="curve" smooth="yes"/>
      <point x="391" y="230" type="line" smooth="yes"/>
      <point x="459" y="230"/>
      <point x="459" y="140"/>
    </contour>
    <contour>
      <point x="44" y="343" type="curve" smooth="yes"/>
      <point x="311" y="343" type="line" smooth="yes"/>
      <point x="379" y="343"/>
      <point x="379" y="253"/>
      <point x="311" y="253" type="curve" smooth="yes"/>
      <point x="44" y="253" type="line" smooth="yes"/>
      <point x="-23" y="253"/>
      <point x="-23" y="343"/>
    </contour>
  </outline>
</glyph>
<glyph name="dieresis" format="2">
  <advance width="409"/>
  <unicode hex="00A8"/>
  <outline>
    <contour>
      <point x="-63" y="478" type="curve" smooth="yes"/>
      <point x="-150" y="488"/>
      <point x="-157" y="589"/>
      <point x="-86" y="599" type="curve" smooth="yes"/>
      <point x="-19" y="608"/>
      <point x="-7" y="519"/>
      <point x="-74" y="509" type="curve" smooth="yes"/>
      <point x="-76" y="509"/>
      <point x="-55" y="568"/>
      <point x="-53" y="568" type="curve" smooth="yes"/>
      <point x="14" y="560"/>
      <point x="4" y="471"/>
    </contour>
    <contour>
      <point x="92" y="478" type="curve" smooth="yes"/>
      <point x="6" y="488"/>
      <point x="-1" y="589"/>
      <point x="69" y="599" type="curve" smooth="yes"/>
      <point x="135" y="608"/>
      <point x="148" y="519"/>
      <point x="81" y="509" type="curve" smooth="yes"/>
      <point x="80" y="509"/>
      <point x="100" y="568"/>
      <point x="102" y="568" type="curve" smooth="yes"/>
      <point x="169" y="560"/>
      <point x="159" y="471"/>
    </contour>
  </outline>
</glyph>
<glyph name="registered" format="2">
  <advance width="456"/>
  <unicode hex="00AE"/>
  <outline>
    <contour>
      <point x="217" y="146" type="curve" smooth="yes"/>
      <point x="120" y="167"/>
      <point x="14" y="238"/>
      <point x="-51" y="331" type="curve" smooth="yes"/>
      <point x="-146" y="466"/>
      <point x="-99" y="576"/>
      <point x="35" y="576" type="curve" smooth="yes"/>
      <point x="149" y="576"/>
      <point x="287" y="497"/>
      <point x="368" y="383" type="curve" smooth="yes"/>
      <point x="449" y="268"/>
      <point x="425" y="177"/>
      <point x="343" y="148" type="curve" smooth="yes"/>
      <point x="280" y="125"/>
      <point x="249" y="209"/>
      <point x="313" y="232" type="curve" smooth="yes"/>
      <point x="343" y="243"/>
      <point x="324" y="288"/>
      <point x="294" y="331" type="curve" smooth="yes"/>
      <point x="233" y="419"/>
      <point x="122" y="486"/>
      <point x="35" y="486" type="curve" smooth="yes"/>
      <point x="-28" y="486"/>
      <point x="-22" y="447"/>
      <point x="23" y="383" type="curve" smooth="yes"/>
      <point x="74" y="310"/>
      <point x="160" y="251"/>
      <point x="237" y="234" type="curve" smooth="yes"/>
      <point x="303" y="220"/>
      <point x="283" y="132"/>
    </contour>
    <contour>
      <point x="120" y="263" type="curve" smooth="yes"/>
      <point x="100" y="291"/>
      <point x="80" y="319"/>
      <point x="60" y="348" type="curve" smooth="yes"/>
      <point x="3" y="429"/>
      <point x="41" y="474"/>
      <point x="104" y="474" type="curve" smooth="yes"/>
      <point x="151" y="474"/>
      <point x="198" y="447"/>
      <point x="225" y="410" type="curve" smooth="yes"/>
      <point x="265" y="353"/>
      <point x="238" y="318"/>
      <point x="217" y="303" type="curve"/>
      <point x="220" y="305" type="line"/>
      <point x="134" y="234"/>
      <point x="82" y="385"/>
      <point x="178" y="385" type="curve" smooth="yes"/>
      <point x="199" y="385"/>
      <point x="212" y="387"/>
      <point x="295" y="325" type="curve" smooth="yes"/>
      <point x="349" y="285"/>
      <point x="295" y="213"/>
      <point x="241" y="253" type="curve" smooth="yes"/>
      <point x="217" y="271"/>
      <point x="184" y="295"/>
      <point x="178" y="295" type="curve" smooth="yes"/>
      <point x="177" y="295"/>
      <point x="161" y="374"/>
      <point x="162" y="375" type="curve" smooth="yes"/>
      <point x="163" y="375"/>
      <point x="164" y="376"/>
      <point x="165" y="377" type="curve" smooth="yes"/>
      <point x="166" y="377"/>
      <point x="153" y="356"/>
      <point x="151" y="358" type="curve" smooth="yes"/>
      <point x="142" y="371"/>
      <point x="121" y="384"/>
      <point x="104" y="384" type="curve" smooth="yes"/>
      <point x="102" y="384"/>
      <point x="131" y="403"/>
      <point x="132" y="400" type="curve" smooth="yes"/>
      <point x="154" y="371"/>
      <point x="174" y="343"/>
      <point x="194" y="315" type="curve" smooth="yes"/>
      <point x="233" y="260"/>
      <point x="160" y="208"/>
    </contour>
  </outline>
</glyph>
<glyph name="threesuperior" format="2">
  <advance width="297"/>
  <unicode hex="00B3"/>
  <outline>
    <contour>
      <point x="54" y="354" type="curve" smooth="yes"/>
      <point x="61" y="352"/>
      <point x="123" y="328"/>
      <point x="120" y="332" type="curve" smooth="yes"/>
      <point x="112" y="345"/>
      <point x="97" y="356"/>
      <point x="79" y="363" type="curve" smooth="yes"/>
      <point x="64" y="369"/>
      <point x="46" y="373"/>
      <point x="27" y="374" type="curve" smooth="yes"/>
      <point x="-49" y="378"/>
      <point x="-62" y="413"/>
      <point x="-41" y="468" type="curve" smooth="yes"/>
      <point x="-37" y="479"/>
      <point x="-26" y="498"/>
      <point x="-23" y="506" type="curve" smooth="yes"/>
      <point x="-22" y="508"/>
      <point x="-8" y="480"/>
      <point x="-11" y="480" type="curve" smooth="yes"/>
      <point x="-57" y="480"/>
      <point x="-86" y="480"/>
      <point x="-109" y="480" type="curve" smooth="yes"/>
      <point x="-176" y="480"/>
      <point x="-176" y="570"/>
      <point x="-109" y="570" type="curve" smooth="yes"/>
      <point x="-75" y="570"/>
      <point x="-42" y="570"/>
      <point x="-11" y="570" type="curve" smooth="yes"/>
      <point x="78" y="570"/>
      <point x="78" y="515"/>
      <point x="61" y="472" type="curve" smooth="yes"/>
      <point x="54" y="455"/>
      <point x="45" y="442"/>
      <point x="43" y="436" type="curve" smooth="yes"/>
      <point x="42" y="434"/>
      <point x="30" y="464"/>
      <point x="35" y="464" type="curve" smooth="yes"/>
      <point x="64" y="461"/>
      <point x="90" y="455"/>
      <point x="109" y="447" type="curve"/>
      <point x="147" y="434"/>
      <point x="176" y="409"/>
      <point x="194" y="384" type="curve" smooth="yes"/>
      <point x="256" y="296"/>
      <point x="173" y="224"/>
      <point x="28" y="268" type="curve" smooth="yes"/>
      <point x="-37" y="287"/>
      <point x="-11" y="373"/>
    </contour>
  </outline>
</glyph>
<glyph name="cedilla" format="2">
  <advance width="294"/>
  <unicode hex="00B8"/>
  <outline>
    <contour>
      <point x="273" y="126" type="curve" smooth="yes"/>
      <point x="323" y="55" type="line"/>
      <point x="290" y="74" type="line"/>
      <point x="356" y="69"/>
      <point x="401" y="47"/>
      <point x="430" y="6" type="curve" smooth="yes"/>
      <point x="479" y="-63"/>
      <point x="438" y="-135"/>
      <point x="291" y="-108" type="curve" smooth="yes"/>
      <point x="225" y="-96"/>
      <point x="241" y="-8"/>
      <point x="307" y="-20" type="curve" smooth="yes"/>
      <point x="314" y="-21"/>
      <point x="359" y="-49"/>
      <point x="356" y="-46" type="curve" smooth="yes"/>
      <point x="342" y="-26"/>
      <point x="315" y="-18"/>
      <point x="282" y="-16" type="curve" smooth="yes"/>
      <point x="269" y="-15"/>
      <point x="257" y="-8"/>
      <point x="249" y="3" type="curve" smooth="yes"/>
      <point x="199" y="74" type="line" smooth="yes"/>
      <point x="160" y="129"/>
      <point x="234" y="181"/>
    </contour>
  </outline>
</glyph>
<glyph name="onesuperior" format="2">
  <advance width="240"/>
  <unicode hex="00B9"/>
  <outline>
    <contour>
      <point x="-133" y="556" type="curve" smooth="yes"/>
      <point x="-47" y="577"/>
      <point x="-18" y="554"/>
      <point x="25" y="492" type="curve" smooth="yes"/>
      <point x="66" y="435"/>
      <point x="106" y="378"/>
      <point x="146" y="322" type="curve" smooth="yes"/>
      <point x="185" y="267"/>
      <point x="112" y="215"/>
      <point x="72" y="270" type="curve" smooth="yes"/>
      <point x="34" y="324"/>
      <point x="-6" y="381"/>
      <point x="-49" y="440" type="curve" smooth="yes"/>
      <point x="-70" y="471"/>
      <point x="-69" y="479"/>
      <point x="-111" y="468" type="curve" smooth="yes"/>
      <point x="-177" y="452"/>
      <point x="-198" y="540"/>
    </contour>
  </outline>
</glyph>
<glyph name="multiply" format="2">
  <advance width="365"/>
  <unicode hex="00D7"/>
  <outline>
    <contour>
      <point x="3" y="432" type="curve" smooth="yes"/>
      <point x="351" y="228" type="line" smooth="yes"/>
      <point x="409" y="194"/>
      <point x="363" y="116"/>
      <point x="305" y="150" type="curve" smooth="yes"/>
      <point x="-43" y="354" type="line" smooth="yes"/>
      <point x="-101" y="388"/>
      <point x="-55" y="466"/>
    </contour>
    <contour>
      <point x="227" y="380" type="curve" smooth="yes"/>
      <point x="167" y="176" type="line" smooth="yes"/>
      <point x="148" y="112"/>
      <point x="62" y="137"/>
      <point x="81" y="202" type="curve" smooth="yes"/>
      <point x="141" y="406" type="line" smooth="yes"/>
      <point x="160" y="470"/>
      <point x="246" y="445"/>
    </contour>
  </outline>
</glyph>
<glyph name="Thorn" format="2">
  <advance width="393"/>
  <unicode hex="00DE"/>
  <outline>
    <contour>
      <point x="136" y="241" type="curve" smooth="yes"/>
      <point x="186" y="241"/>
      <point x="228" y="241"/>
      <point x="262" y="241" type="curve" smooth="yes"/>
      <point x="291" y="241"/>
      <point x="281" y="259"/>
      <point x="259" y="289" type="curve" smooth="yes"/>
      <point x="219" y="346"/>
      <point x="148" y="389"/>
      <point x="85" y="389" type="curve" smooth="yes"/>
      <point x="63" y="389"/>
      <point x="45" y="389"/>
      <point x="31" y="389" type="curve" smooth="yes"/>
      <point x="-39" y="389"/>
      <point x="-73" y="410"/>
      <point x="-103" y="451" type="curve" smooth="yes"/>
      <point x="-181" y="562"/>
      <point x="-139" y="659"/>
      <point x="-7" y="472" type="curve" smooth="yes"/>
      <point x="73" y="358"/>
      <point x="155" y="242"/>
      <point x="235" y="130" type="curve" smooth="yes"/>
      <point x="274" y="75"/>
      <point x="201" y="23"/>
      <point x="161" y="78" type="curve" smooth="yes"/>
      <point x="81" y="190"/>
      <point x="-1" y="306"/>
      <point x="-81" y="420" type="curve" smooth="yes"/>
      <point x="-87" y="428"/>
      <point x="-33" y="508"/>
      <point x="-29" y="503" type="curve" smooth="yes"/>
      <point x="-15" y="483"/>
      <point x="-4" y="479"/>
      <point x="31" y="479" type="curve" smooth="yes"/>
      <point x="52" y="479"/>
      <point x="70" y="479"/>
      <point x="85" y="479" type="curve" smooth="yes"/>
      <point x="176" y="479"/>
      <point x="275" y="424"/>
      <point x="333" y="341" type="curve" smooth="yes"/>
      <point x="408" y="234"/>
      <point x="364" y="151"/>
      <point x="262" y="151" type="curve" smooth="yes"/>
      <point x="211" y="151"/>
      <point x="170" y="151"/>
      <point x="136" y="151" type="curve" smooth="yes"/>
      <point x="69" y="151"/>
      <point x="69" y="241"/>
    </contour>
  </outline>
</glyph>
<glyph name="ae" format="2">
  <advance width="664"/>
  <unicode hex="00E6"/>
  <outline>
    <contour>
      <point x="306" y="52" type="curve" smooth="yes"/>
      <point x="213" y="52"/>
      <point x="97" y="121"/>
      <point x="23" y="223" type="curve" smooth="yes"/>
      <point x="-64" y="349"/>
      <point x="-22" y="446"/>
      <point x="91" y="446" type="curve" smooth="yes"/>
      <point x="183" y="446"/>
      <point x="301" y="378"/>
      <point x="373" y="275" type="curve" smooth="yes"/>
      <point x="462" y="151"/>
      <point x="419" y="52"/>
    </contour>
    <contour>
      <point x="404" y="76" type="curve" smooth="yes"/>
      <point x="195" y="371" type="line" smooth="yes"/>
      <point x="156" y="426"/>
      <point x="230" y="478"/>
      <point x="269" y="423" type="curve" smooth="yes"/>
      <point x="478" y="128" type="line" smooth="yes"/>
      <point x="517" y="73"/>
      <point x="443" y="21"/>
    </contour>
    <contour>
      <point x="306" y="142" type="curve" smooth="yes"/>
      <point x="348" y="142"/>
      <point x="332" y="177"/>
      <point x="299" y="223" type="curve" smooth="yes"/>
      <point x="247" y="297"/>
      <point x="157" y="356"/>
      <point x="91" y="356" type="curve" smooth="yes"/>
      <point x="49" y="356"/>
      <point x="64" y="321"/>
      <point x="97" y="275" type="curve" smooth="yes"/>
      <point x="149" y="202"/>
      <point x="239" y="142"/>
    </contour>
    <contour>
      <point x="353" y="294" type="curve" smooth="yes"/>
      <point x="604" y="294" type="line"/>
      <point x="567" y="224" type="line"/>
      <point x="516" y="299"/>
      <point x="435" y="356"/>
      <point x="369" y="356" type="curve" smooth="yes"/>
      <point x="326" y="356"/>
      <point x="339" y="324"/>
      <point x="374" y="275" type="curve" smooth="yes"/>
      <point x="447" y="171"/>
      <point x="589" y="106"/>
      <point x="649" y="163" type="curve" smooth="yes"/>
      <point x="698" y="209"/>
      <point x="760" y="144"/>
      <point x="711" y="97" type="curve" smooth="yes"/>
      <point x="616" y="7"/>
      <point x="418" y="57"/>
      <point x="300" y="223" type="curve" smooth="yes"/>
      <point x="209" y="350"/>
      <point x="256" y="446"/>
      <point x="369" y="446" type="curve" smooth="yes"/>
      <point x="461" y="446"/>
      <point x="570" y="380"/>
      <point x="641" y="274" type="curve" smooth="yes"/>
      <point x="661" y="244"/>
      <point x="640" y="204"/>
      <point x="604" y="204" type="curve" smooth="yes"/>
      <point x="353" y="204" type="line" smooth="yes"/>
      <point x="286" y="204"/>
      <point x="286" y="294"/>
    </contour>
  </outline>
</glyph>
<glyph name="thorn" format="2">
  <advance width="412"/>
  <unicode hex="00FE"/>
  <outline>
    <contour>
      <point x="109" y="446" type="curve" smooth="yes"/>
      <point x="202" y="446"/>
      <point x="318" y="377"/>
      <point x="392" y="275" type="curve" smooth="yes"/>
      <point x="479" y="149"/>
      <point x="435" y="52"/>
      <point x="324" y="52" type="curve" smooth="yes"/>
      <point x="231" y="52"/>
      <point x="115" y="120"/>
      <point x="42" y="223" type="curve" smooth="yes"/>
      <point x="-45" y="347"/>
      <point x="-5" y="446"/>
    </contour>
    <contour>
      <point x="109" y="356" type="curve" smooth="yes"/>
      <point x="67" y="356"/>
      <point x="83" y="321"/>
      <point x="116" y="275" type="curve" smooth="yes"/>
      <point x="168" y="201"/>
      <point x="257" y="142"/>
      <point x="324" y="142" type="curve" smooth="yes"/>
      <point x="365" y="142"/>
      <point x="351" y="177"/>
      <point x="318" y="223" type="curve" smooth="yes"/>
      <point x="266" y="296"/>
      <point x="176" y="356"/>
    </contour>
    <contour>
      <point x="229" y="-41" type="curve" smooth="yes"/>
      <point x="-181" y="539" type="line" smooth="yes"/>
      <point x="-220" y="594"/>
      <point x="-146" y="646"/>
      <point x="-107" y="591" type="curve" smooth="yes"/>
      <point x="303" y="11" type="line" smooth="yes"/>
      <point x="342" y="-44"/>
      <point x="268" y="-96"/>
    </contour>
  </outline>
</glyph>
<glyph name="emdash" format="2">
  <advance width="569"/>
  <unicode hex="2014"/>
  <outline>
    <contour>
      <point x="470" y="249" type="curve" smooth="yes"/>
      <point x="427" y="249"/>
      <point x="394" y="249"/>
      <point x="356" y="249" type="curve" smooth="yes"/>
      <point x="284" y="249"/>
      <point x="216" y="249"/>
      <point x="168" y="249" type="curve" smooth="yes"/>
      <point x="111" y="249"/>
      <point x="75" y="249"/>
      <point x="49" y="249" type="curve" smooth="yes"/>
      <point x="-19" y="249"/>
      <point x="-18" y="339"/>
      <point x="49" y="339" type="curve" smooth="yes"/>
      <point x="88" y="339"/>
      <point x="130" y="339"/>
      <point x="168" y="339" type="curve" smooth="yes"/>
      <point x="240" y="339"/>
      <point x="308" y="339"/>
      <point x="356" y="339" type="curve" smooth="yes"/>
      <point x="412" y="339"/>
      <point x="441" y="339"/>
      <point x="470" y="339" type="curve" smooth="yes"/>
      <point x="538" y="339"/>
      <point x="538" y="249"/>
    </contour>
  </outline>
</glyph>
<glyph name="quoteleft" format="2">
  <advance width="194"/>
  <unicode hex="2018"/>
  <outline>
    <contour>
      <point x="-36" y="538" type="curve" smooth="yes"/>
      <point x="-31" y="502"/>
      <point x="-8" y="453"/>
      <point x="28" y="434" type="curve" smooth="yes"/>
      <point x="88" y="402"/>
      <point x="45" y="322"/>
      <point x="-14" y="354" type="curve" smooth="yes"/>
      <point x="-78" y="389"/>
      <point x="-117" y="462"/>
      <point x="-126" y="526" type="curve" smooth="yes"/>
      <point x="-135" y="593"/>
      <point x="-46" y="605"/>
    </contour>
  </outline>
</glyph>
<glyph name="quotesinglbase" format="2">
  <advance width="194"/>
  <unicode hex="201A"/>
  <outline>
    <contour>
      <point x="219" y="-13" type="curve" smooth="yes"/>
      <point x="214" y="23"/>
      <point x="191" y="71"/>
      <point x="155" y="90" type="curve" smooth="yes"/>
      <point x="95" y="122"/>
      <point x="138" y="202"/>
      <point x="197" y="170" type="curve" smooth="yes"/>
      <point x="261" y="135"/>
      <point x="300" y="63"/>
      <point x="309" y="-1" type="curve" smooth="yes"/>
      <point x="318" y="-68"/>
      <point x="229" y="-80"/>
    </contour>
  </outline>
</glyph>
<glyph name="quotedblleft" format="2">
  <advance width="336"/>
  <unicode hex="201C"/>
  <outline>
    <contour>
      <point x="-35" y="537" type="curve" smooth="yes"/>
      <point x="-31" y="501"/>
      <point x="-8" y="453"/>
      <point x="28" y="434" type="curve" smooth="yes"/>
      <point x="88" y="402"/>
      <point x="45" y="322"/>
      <point x="-14" y="354" type="curve" smooth="yes"/>
      <point x="-78" y="389"/>
      <point x="-117" y="463"/>
      <point x="-125" y="527" type="curve" smooth="yes"/>
      <point x="-133" y="594"/>
      <point x="-43" y="604"/>
    </contour>
    <contour>
      <point x="106" y="538" type="curve" smooth="yes"/>
      <point x="111" y="502"/>
      <point x="134" y="453"/>
      <point x="170" y="434" type="curve" smooth="yes"/>
      <point x="230" y="402"/>
      <point x="187" y="322"/>
      <point x="128" y="354" type="curve" smooth="yes"/>
      <point x="64" y="389"/>
      <point x="25" y="462"/>
      <point x="16" y="526" type="curve" smooth="yes"/>
      <point x="7" y="593"/>
      <point x="96" y="605"/>
    </contour>
  </outline>
</glyph>
<glyph name="guilsinglleft" format="2">
  <advance width="281"/>
  <unicode hex="2039"/>
  <outline>
    <contour>
      <point x="152" y="383" type="curve" smooth="yes"/>
      <point x="140" y="353"/>
      <point x="129" y="324"/>
      <point x="114" y="285" type="curve" smooth="yes"/>
      <point x="111" y="279"/>
      <point x="140" y="265"/>
      <point x="151" y="259" type="curve" smooth="yes"/>
      <point x="219" y="221"/>
      <point x="275" y="190"/>
      <point x="329" y="160" type="curve" smooth="yes"/>
      <point x="388" y="128"/>
      <point x="344" y="49"/>
      <point x="285" y="82" type="curve" smooth="yes"/>
      <point x="231" y="112"/>
      <point x="175" y="143"/>
      <point x="107" y="181" type="curve" smooth="yes"/>
      <point x="8" y="236"/>
      <point x="6" y="259"/>
      <point x="30" y="319" type="curve" smooth="yes"/>
      <point x="45" y="356"/>
      <point x="56" y="387"/>
      <point x="68" y="417" type="curve" smooth="yes"/>
      <point x="93" y="479"/>
      <point x="177" y="446"/>
    </contour>
  </outline>
</glyph>
<glyph name="guilsinglright" format="2">
  <advance width="281"/>
  <unicode hex="203A"/>
  <outline>
    <contour>
      <point x="122" y="135" type="curve" smooth="yes"/>
      <point x="178" y="273" type="line"/>
      <point x="198" y="217" type="line"/>
      <point x="-55" y="357" type="line" smooth="yes"/>
      <point x="-114" y="389"/>
      <point x="-70" y="468"/>
      <point x="-11" y="435" type="curve" smooth="yes"/>
      <point x="242" y="295" type="line" smooth="yes"/>
      <point x="262" y="284"/>
      <point x="270" y="260"/>
      <point x="262" y="239" type="curve" smooth="yes"/>
      <point x="206" y="101" type="line" smooth="yes"/>
      <point x="180" y="39"/>
      <point x="97" y="72"/>
    </contour>
  </outline>
</glyph>
<glyph name="O" format="2">
  <advance width="520"/>
  <outline>
    <contour>
      <point x="542.0245599079889" y="229.12537978270245" type="curve" smooth="yes"/>
      <point x="560.3138173754006" y="241.55784019450581"/>
      <point x="593.1651785144518" y="265.0104062889657"/>
      <point x="594.586317170103" y="276.5944738613696" type="curve" smooth="yes"/>
      <point x="597.8504394550797" y="303.2011761443588"/>
      <point x="576.3513648197404" y="348.8761681104993"/>
      <point x="546.1797883116085" y="391.5452208064767" type="curve" smooth="yes"/>
      <point x="470.50154329231594" y="498.5704212893546"/>
      <point x="347.029064814617" y="581.8376618407357"/>
      <point x="248.00000000000006" y="581.8376618407357" type="curve" smooth="yes"/>
      <point x="179.33134249454906" y="581.8376618407357"/>
      <point x="194.31210351024907" y="526.3663535702681"/>
      <point x="248.82021168839154" y="449.28024772543927" type="curve" smooth="yes"/>
      <point x="287.4835596436182" y="394.60201668040764"/>
      <point x="338.80301650392994" y="346.6361212779761"/>
      <point x="391.8935844778043" y="312.59799711324996" type="curve" smooth="yes"/>
      <point x="448.379279817246" y="276.3831441766426"/>
      <point x="490.752290370447" y="257.8133940334443"/>
      <point x="525.4061656907223" y="221.67265240920844" type="curve" smooth="yes"/>
      <point x="577.313899592939" y="167.5377545970147"/>
      <point x="505.1340358433474" y="98.32744272739237"/>
      <point x="453.22630194113066" y="152.4623405395861" type="curve" smooth="yes"/>
      <point x="431.4197190791644" y="175.2045611321761"/>
      <point x="373.4652109483921" y="205.62533970845718"/>
      <point x="337.9205572970691" y="228.4141961955698" type="curve" smooth="yes"/>
      <point x="274.28623433571005" y="269.2122714236008"/>
      <point x="213.51241928748723" y="326.007925839364"/>
      <point x="167.17055359561894" y="391.54522080647666" type="curve" smooth="yes"/>
      <point x="51.22474723446592" y="555.5173526627042"/>
      <point x="101.93287104761353" y="681.8376618407357"/>
      <point x="248.00000000000006" y="681.8376618407357" type="curve" smooth="yes"/>
      <point x="376.52517077725264" y="681.8376618407357"/>
      <point x="529.6102076037773" y="588.1832273232154"/>
      <point x="627.8294464043811" y="449.2802477254392" type="curve" smooth="yes"/>
      <point x="681.4223423817289" y="373.48844738742355"/>
      <point x="699.6401474543078" y="311.67843276709357"/>
      <point x="693.8421817421429" y="264.41771944745017" type="curve" smooth="yes"/>
      <point x="688.7305990825963" y="222.7518913492204"/>
      <point x="664.0256694472142" y="191.14117278316766"/>
      <point x="598.2424673967699" y="146.4238267284651" type="curve" smooth="yes"/>
      <point x="536.2163026060919" y="104.2603961118792"/>
      <point x="479.99839511731085" y="186.96194916611657"/>
    </contour>
  </outline>
</glyph>
<glyph name="circumflex.cap" format="2">
  <advance width="398"/>
  <outline>
    <contour>
      <point x="-193" y="651" type="curve" smooth="yes"/>
      <point x="-159" y="726" type="line" smooth="yes"/>
      <point x="-148" y="749"/>
      <point x="-120" y="759"/>
      <point x="-97" y="747" type="curve" smooth="yes"/>
      <point x="42" y="672" type="line" smooth="yes"/>
      <point x="102" y="640"/>
      <point x="59" y="560"/>
      <point x="0" y="592" type="curve" smooth="yes"/>
      <point x="-139" y="667" type="line"/>
      <point x="-77" y="688" type="line"/>
      <point x="-111" y="613" type="line" smooth="yes"/>
      <point x="-139" y="552"/>
      <point x="-221" y="589"/>
    </contour>
  </outline>
</glyph>
<glyph name="grave.cap" format="2">
  <advance width="288"/>
  <outline>
    <contour>
      <point x="-115" y="594" type="curve" smooth="yes"/>
      <point x="-232" y="669" type="line" smooth="yes"/>
      <point x="-289" y="706"/>
      <point x="-241" y="781"/>
      <point x="-184" y="745" type="curve" smooth="yes"/>
      <point x="-67" y="670" type="line" smooth="yes"/>
      <point x="-10" y="633"/>
      <point x="-58" y="558"/>
    </contour>
  </outline>
</glyph>
<glyph name="o" format="2">
  <advance width="452"/>
  <outline>
    <contour>
      <point x="491.9640545212075" y="231.8782998968904" type="curve" smooth="yes"/>
      <point x="503.3423606729275" y="239.6575954066273"/>
      <point x="531.2762827914562" y="259.2926879848594"/>
      <point x="532.1906606680807" y="267.9685577823745" type="curve" smooth="yes"/>
      <point x="534.0195862217672" y="285.32190849084316"/>
      <point x="517.6104819309364" y="316.06607036370673"/>
      <point x="500.23866281465416" y="340.6335325610453" type="curve" smooth="yes"/>
      <point x="446.06736000701596" y="417.243323683027"/>
      <point x="346.34187286532057" y="480.72139213105936"/>
      <point x="271.5" y="480.72139213105936" type="curve" smooth="yes"/>
      <point x="223.7633354819869" y="480.72139213105936"/>
      <point x="235.41169740168755" y="448.36049948706096"/>
      <point x="270.76133718534584" y="398.36855948000783" type="curve" smooth="yes"/>
      <point x="295.89925989920755" y="362.8181682481779"/>
      <point x="330.4419168622609" y="328.1061595640116"/>
      <point x="367.2479965733735" y="305.15517934064826" type="curve" smooth="yes"/>
      <point x="416.7595001174588" y="274.2815424961843"/>
      <point x="455.72197363546314" y="255.8615318100033"/>
      <point x="482.4937322536569" y="222.742405246543" type="curve" smooth="yes"/>
      <point x="529.6421343811967" y="164.41549741816755"/>
      <point x="451.87292394336265" y="101.55096124811462"/>
      <point x="404.7245218158229" y="159.87786907649007" type="curve" smooth="yes"/>
      <point x="391.1807094797458" y="176.63281003152528"/>
      <point x="339.38352983310034" y="204.6817153691047"/>
      <point x="314.33569782320023" y="220.3006647820674" type="curve" smooth="yes"/>
      <point x="266.2305974326607" y="250.29731795382145"/>
      <point x="221.96663961136025" y="294.16960180414384"/>
      <point x="189.11167909257324" y="340.63353256104523" type="curve" smooth="yes"/>
      <point x="95.19607095971053" y="473.4502593010568"/>
      <point x="144.67500529337244" y="580.7213921310594"/>
      <point x="271.5" y="580.7213921310594" type="curve" smooth="yes"/>
      <point x="376.1540895719206" y="580.7213921310594"/>
      <point x="506.1386348131179" y="505.4947929000841"/>
      <point x="581.8883209074268" y="398.3685594800078" type="curve" smooth="yes"/>
      <point x="621.0701453908604" y="342.95709189701364"/>
      <point x="635.7649670748996" y="296.62745566327624"/>
      <point x="631.6398584977185" y="257.4872863403412" type="curve" smooth="yes"/>
      <point x="627.2674231687181" y="216.0004124972269"/>
      <point x="602.8130486314101" y="186.52733380955033"/>
      <point x="548.4034778469396" y="149.32776086376956" type="curve" smooth="yes"/>
      <point x="486.4905735720989" y="106.99819336947054"/>
      <point x="430.05115024636683" y="189.54873240259138"/>
    </contour>
  </outline>
</glyph>
<glyph name="s" format="2">
  <advance width="363"/>
  <outline>
    <contour>
      <point x="261.23652366093654" y="457.8814185112972" type="curve" smooth="yes"/>
      <point x="247.1955432680952" y="472.4834123854555"/>
      <point x="230.74468619862716" y="478.6451571276002"/>
      <point x="215.91593767830298" y="480.33630550230487" type="curve" smooth="yes"/>
      <point x="211.2232179328263" y="480.87148791231283"/>
      <point x="196.68638425441895" y="490.82380133638156"/>
      <point x="199.0621127273033" y="487.4640139095128" type="curve" smooth="yes"/>
      <point x="253.4431798003474" y="410.5575713184929"/>
      <point x="449.5067714644254" y="424.2817808995733"/>
      <point x="531.8301860525886" y="307.85889148812976" type="curve" smooth="yes"/>
      <point x="585.3667173995569" y="232.14680277483478"/>
      <point x="546.9944645416907" y="165.64904091291774"/>
      <point x="437.754570877359" y="157.02169160300716" type="curve" smooth="yes"/>
      <point x="392.27310681051864" y="153.42973939151486"/>
      <point x="339.2211001902124" y="151.62677977164506"/>
      <point x="298.3498318223329" y="140.2983214951353" type="curve" smooth="yes"/>
      <point x="226.0747490098803" y="120.26553825233248"/>
      <point x="199.36437135280983" y="216.63231533560258"/>
      <point x="271.6394541652624" y="236.6650985784054" type="curve" smooth="yes"/>
      <point x="322.3255666233664" y="250.7139777326273"/>
      <point x="373.4780655427325" y="252.25675592073452"/>
      <point x="429.881468091962" y="256.711281092234" type="curve" smooth="yes"/>
      <point x="434.8060261995216" y="257.10020387095295"/>
      <point x="452.5939664084606" y="246.71074718314136"/>
      <point x="450.180527959816" y="250.12386456916715" type="curve" smooth="yes"/>
      <point x="394.6006241299436" y="328.72571836076514"/>
      <point x="197.9601652764117" y="315.8173221826984"/>
      <point x="117.41245463453069" y="429.7289869905502" type="curve" smooth="yes"/>
      <point x="62.21556073362549" y="507.7891829460791"/>
      <point x="118.21790621520097" y="592.1265172763281"/>
      <point x="227.24701322559932" y="579.6922651974407" type="curve" smooth="yes"/>
      <point x="261.61177564494517" y="575.773127177605"/>
      <point x="300.77919063694014" y="561.0331050950806"/>
      <point x="333.3183462287524" y="527.1938333826744" type="curve" smooth="yes"/>
      <point x="385.3026573822853" y="473.1324664568125"/>
      <point x="313.22083481446947" y="403.82005158543535"/>
    </contour>
  </outline>
</glyph>
<glyph name="u.alt" format="2">
  <advance width="396"/>
  <outline>
    <contour>
      <point x="5" y="423" type="curve" smooth="yes"/>
      <point x="29" y="389"/>
      <point x="48" y="362"/>
      <point x="65" y="339" type="curve" smooth="yes"/>
      <point x="92" y="301"/>
      <point x="113" y="271"/>
      <point x="131" y="246" type="curve" smooth="yes"/>
      <point x="176" y="180"/>
      <point x="241" y="142"/>
      <point x="306" y="142" type="curve" smooth="yes"/>
      <point x="343" y="142"/>
      <point x="335" y="156"/>
      <point x="308" y="194" type="curve" smooth="yes"/>
      <point x="286" y="225"/>
      <point x="245" y="283"/>
      <point x="223" y="316" type="curve" smooth="yes"/>
      <point x="219" y="321"/>
      <point x="296" y="367"/>
      <point x="300" y="362" type="curve" smooth="yes"/>
      <point x="323" y="330"/>
      <point x="338" y="308"/>
      <point x="356" y="283" type="curve" smooth="yes"/>
      <point x="395" y="229"/>
      <point x="322" y="176"/>
      <point x="282" y="231" type="curve" smooth="yes"/>
      <point x="264" y="256"/>
      <point x="249" y="278"/>
      <point x="226" y="310" type="curve" smooth="yes"/>
      <point x="132" y="444"/>
      <point x="199" y="505"/>
      <point x="297" y="366" type="curve" smooth="yes"/>
      <point x="319" y="335"/>
      <point x="360" y="277"/>
      <point x="382" y="246" type="curve" smooth="yes"/>
      <point x="462" y="133"/>
      <point x="417" y="52"/>
      <point x="306" y="52" type="curve" smooth="yes"/>
      <point x="215" y="52"/>
      <point x="121" y="102"/>
      <point x="57" y="194" type="curve" smooth="yes"/>
      <point x="30" y="232"/>
      <point x="9" y="262"/>
      <point x="-9" y="287" type="curve" smooth="yes"/>
      <point x="-33" y="321"/>
      <point x="-52" y="348"/>
      <point x="-69" y="371" type="curve" smooth="yes"/>
      <point x="-108" y="426"/>
      <point x="-35" y="478"/>
    </contour>
  </outline>
</glyph>
